<svg id="eCrGzuEMV6w1" xmlns="http://www.w3.org/2000/svg" xmlns:xlink="http://www.w3.org/1999/xlink" viewBox="0 0 1440 560" shape-rendering="geometricPrecision" text-rendering="geometricPrecision"><defs><linearGradient id="eCrGzuEMV6w4-fill" x1="0.5" y1="0" x2="0.5" y2="1" spreadMethod="pad" gradientUnits="objectBoundingBox" gradientTransform="translate(0 0)"><stop id="eCrGzuEMV6w4-fill-0" offset="0%" stop-color="#0e2a47"/><stop id="eCrGzuEMV6w4-fill-1" offset="30%" stop-color="#275b75"/><stop id="eCrGzuEMV6w4-fill-2" offset="63%" stop-color="#3e95a5"/><stop id="eCrGzuEMV6w4-fill-3" offset="100%" stop-color="#73edff"/></linearGradient><radialGradient id="eCrGzuEMV6w339-fill" cx="0" cy="0" r="0.5" spreadMethod="pad" gradientUnits="objectBoundingBox" gradientTransform="translate(0.5 0.5)"><stop id="eCrGzuEMV6w339-fill-0" offset="10%" stop-color="#fff"/><stop id="eCrGzuEMV6w339-fill-1" offset="20%" stop-color="#1735b3"/><stop id="eCrGzuEMV6w339-fill-2" offset="100%" stop-color="rgba(23,53,179,0)"/></radialGradient><radialGradient id="eCrGzuEMV6w340-fill" cx="0" cy="0" r="0.5" spreadMethod="pad" gradientUnits="objectBoundingBox" gradientTransform="translate(0.5 0.5)"><stop id="eCrGzuEMV6w340-fill-0" offset="10%" stop-color="#fff"/><stop id="eCrGzuEMV6w340-fill-1" offset="20%" stop-color="#1735b3"/><stop id="eCrGzuEMV6w340-fill-2" offset="100%" stop-color="rgba(23,53,179,0)"/></radialGradient><radialGradient id="eCrGzuEMV6w341-fill" cx="0" cy="0" r="0.5" spreadMethod="pad" gradientUnits="objectBoundingBox" gradientTransform="translate(0.5 0.5)"><stop id="eCrGzuEMV6w341-fill-0" offset="10%" stop-color="#fff"/><stop id="eCrGzuEMV6w341-fill-1" offset="20%" stop-color="#1735b3"/><stop id="eCrGzuEMV6w341-fill-2" offset="100%" stop-color="rgba(23,53,179,0)"/></radialGradient><radialGradient id="eCrGzuEMV6w342-fill" cx="0" cy="0" r="0.5" spreadMethod="pad" gradientUnits="objectBoundingBox" gradientTransform="translate(0.5 0.5)"><stop id="eCrGzuEMV6w342-fill-0" offset="10%" stop-color="#fff"/><stop id="eCrGzuEMV6w342-fill-1" offset="20%" stop-color="#1735b3"/><stop id="eCrGzuEMV6w342-fill-2" offset="100%" stop-color="rgba(23,53,179,0)"/></radialGradient><radialGradient id="eCrGzuEMV6w343-fill" cx="0" cy="0" r="0.5" spreadMethod="pad" gradientUnits="objectBoundingBox" gradientTransform="translate(0.5 0.5)"><stop id="eCrGzuEMV6w343-fill-0" offset="10%" stop-color="#fff"/><stop id="eCrGzuEMV6w343-fill-1" offset="20%" stop-color="#1735b3"/><stop id="eCrGzuEMV6w343-fill-2" offset="100%" stop-color="rgba(23,53,179,0)"/></radialGradient></defs><g mask="url(#eCrGzuEMV6w374)"><g><rect width="1440" height="560" rx="0" ry="0" transform="matrix(1.009626 0 0 1.009517-6.93072-2.66476)" fill="url(#eCrGzuEMV6w4-fill)"/><g style="mix-blend-mode:color-dodge" transform="matrix(-.985825-.001656 0.00169-1.006169 1552.102008 406.348531)" opacity="0.43"><path d="M-76.7,373.66v0" fill="none" stroke="#132e65" stroke-width="1.5"/><path d="M-76.7,373.66L79.2,385.38" fill="none" stroke="#132e65" stroke-width="1.5"/><path d="M-76.7,373.66l27.83,179.35" fill="none" stroke="#132e65" stroke-width="1.5"/><path d="M-48.87,553.01v0" fill="none" stroke="#132e65" stroke-width="1.5"/><path d="M-48.87,553.01l-11.75,99.95" fill="none" stroke="#132e65" stroke-width="1.5"/><path d="M-48.87,553.01l142.82,4.28" fill="none" stroke="#132e65" stroke-width="1.5"/><path d="M-60.62,652.96v0" fill="none" stroke="#132e65" stroke-width="1.5"/><path d="M-60.62,652.96l157.72,3.7" fill="none" stroke="#132e65" stroke-width="1.5"/><path d="M-60.62,652.96L93.95,557.29" fill="none" stroke="#132e65" stroke-width="1.5"/><path d="M-60.62,652.96l268.11,25.39" fill="none" stroke="#132e65" stroke-width="1.5"/><path d="M-60.62,652.96L-76.7,373.66" fill="none" stroke="#132e65" stroke-width="1.5"/><path d="M-60.62,652.96L79.2,385.38" fill="none" stroke="#132e65" stroke-width="1.5"/><path d="M79.2,385.38v0" fill="none" stroke="#132e65" stroke-width="1.5"/><path d="M79.2,385.38l122.17-33.33" fill="none" stroke="#132e65" stroke-width="1.5"/><path d="M79.2,385.38L93.95,557.29" fill="none" stroke="#132e65" stroke-width="1.5"/><path d="M93.95,557.29v0" fill="none" stroke="#132e65" stroke-width="1.5"/><path d="M93.95,557.29l3.15,99.37" fill="none" stroke="#132e65" stroke-width="1.5"/><path d="M93.95,557.29L207.49,678.35" fill="none" stroke="#132e65" stroke-width="1.5"/><path d="M97.1,656.66v0" fill="none" stroke="#132e65" stroke-width="1.5"/><path d="M97.1,656.66l110.39,21.69" fill="none" stroke="#132e65" stroke-width="1.5"/><path d="M201.37,352.05v0" fill="none" stroke="#132e65" stroke-width="1.5"/><path d="M201.37,352.05l171.87,3.32" fill="none" stroke="#132e65" stroke-width="1.5"/><path d="M201.37,352.05L354.45,519.84" fill="none" stroke="#132e65" stroke-width="1.5"/><path d="M201.37,352.05L93.95,557.29" fill="none" stroke="#132e65" stroke-width="1.5"/><path d="M201.37,352.05L-76.7,373.66" fill="none" stroke="#132e65" stroke-width="1.5"/><path d="M207.49,678.35v0" fill="none" stroke="#132e65" stroke-width="1.5"/><path d="M207.49,678.35l167.35-7.3" fill="none" stroke="#132e65" stroke-width="1.5"/><path d="M207.49,678.35L354.45,519.84" fill="none" stroke="#132e65" stroke-width="1.5"/><path d="M373.24,355.37v0" fill="none" stroke="#132e65" stroke-width="1.5"/><path d="M373.24,355.37l157.49,45.29" fill="none" stroke="#132e65" stroke-width="1.5"/><path d="M373.24,355.37L354.45,519.84" fill="none" stroke="#132e65" stroke-width="1.5"/><path d="M373.24,355.37L514.25,556.55" fill="none" stroke="#132e65" stroke-width="1.5"/><path d="M373.24,355.37l265.14-97.51" fill="none" stroke="#132e65" stroke-width="1.5"/><path d="M354.45,519.84v0" fill="none" stroke="#132e65" stroke-width="1.5"/><path d="M354.45,519.84l20.39,151.21" fill="none" stroke="#132e65" stroke-width="1.5"/><path d="M354.45,519.84l159.8,36.71" fill="none" stroke="#132e65" stroke-width="1.5"/><path d="M374.84,671.05v0" fill="none" stroke="#132e65" stroke-width="1.5"/><path d="M374.84,671.05l139.41-114.5" fill="none" stroke="#132e65" stroke-width="1.5"/><path d="M374.84,671.05L97.1,656.66" fill="none" stroke="#132e65" stroke-width="1.5"/><path d="M374.84,671.05l297.89-19.69" fill="none" stroke="#132e65" stroke-width="1.5"/><path d="M374.84,671.05L93.95,557.29" fill="none" stroke="#132e65" stroke-width="1.5"/><path d="M530.73,400.66v0" fill="none" stroke="#132e65" stroke-width="1.5"/><path d="M530.73,400.66l132.44-25.42" fill="none" stroke="#132e65" stroke-width="1.5"/><path d="M530.73,400.66L514.25,556.55" fill="none" stroke="#132e65" stroke-width="1.5"/><path d="M530.73,400.66l107.65-142.8" fill="none" stroke="#132e65" stroke-width="1.5"/><path d="M530.73,400.66L680.79,530.23" fill="none" stroke="#132e65" stroke-width="1.5"/><path d="M514.25,556.55v0" fill="none" stroke="#132e65" stroke-width="1.5"/><path d="M514.25,556.55l166.54-26.32" fill="none" stroke="#132e65" stroke-width="1.5"/><path d="M514.25,556.55l158.48,94.81" fill="none" stroke="#132e65" stroke-width="1.5"/><path d="M514.25,556.55L663.17,375.24" fill="none" stroke="#132e65" stroke-width="1.5"/><path d="M638.38,257.86v0" fill="none" stroke="#132e65" stroke-width="1.5"/><path d="M638.38,257.86l24.79,117.38" fill="none" stroke="#132e65" stroke-width="1.5"/><path d="M638.38,257.86l159.57-8.54" fill="none" stroke="#132e65" stroke-width="1.5"/><path d="M638.38,257.86l192.1,151.76" fill="none" stroke="#132e65" stroke-width="1.5"/><path d="M638.38,257.86l42.41,272.37" fill="none" stroke="#132e65" stroke-width="1.5"/><path d="M663.17,375.24v0" fill="none" stroke="#132e65" stroke-width="1.5"/><path d="M663.17,375.24l17.62,154.99" fill="none" stroke="#132e65" stroke-width="1.5"/><path d="M663.17,375.24l167.31,34.38" fill="none" stroke="#132e65" stroke-width="1.5"/><path d="M663.17,375.24L797.95,249.32" fill="none" stroke="#132e65" stroke-width="1.5"/><path d="M663.17,375.24L804.98,537.83" fill="none" stroke="#132e65" stroke-width="1.5"/><path d="M680.79,530.23v0" fill="none" stroke="#132e65" stroke-width="1.5"/><path d="M680.79,530.23l-8.06,121.13" fill="none" stroke="#132e65" stroke-width="1.5"/><path d="M680.79,530.23l124.19,7.6" fill="none" stroke="#132e65" stroke-width="1.5"/><path d="M672.73,651.36v0" fill="none" stroke="#132e65" stroke-width="1.5"/><path d="M672.73,651.36l170.88-8.62" fill="none" stroke="#132e65" stroke-width="1.5"/><path d="M797.95,249.32v0" fill="none" stroke="#132e65" stroke-width="1.5"/><path d="M797.95,249.32l32.53,160.3" fill="none" stroke="#132e65" stroke-width="1.5"/><path d="M830.48,409.62v0" fill="none" stroke="#132e65" stroke-width="1.5"/><path d="M830.48,409.62l-25.5,128.21" fill="none" stroke="#132e65" stroke-width="1.5"/><path d="M830.48,409.62l134.17,80.05" fill="none" stroke="#132e65" stroke-width="1.5"/><path d="M804.98,537.83v0" fill="none" stroke="#132e65" stroke-width="1.5"/><path d="M804.98,537.83l38.63,104.91" fill="none" stroke="#132e65" stroke-width="1.5"/><path d="M843.61,642.74v0" fill="none" stroke="#132e65" stroke-width="1.5"/><path d="M843.61,642.74l148.89,7.59" fill="none" stroke="#132e65" stroke-width="1.5"/><path d="M843.61,642.74L964.65,489.67" fill="none" stroke="#132e65" stroke-width="1.5"/><path d="M985.24,-104.72v0" fill="none" stroke="#132e65" stroke-width="1.5"/><path d="M985.24,-104.72l143.59,51.09" fill="none" stroke="#132e65" stroke-width="1.5"/><path d="M985.24,-104.72L950.79,82.76" fill="none" stroke="#132e65" stroke-width="1.5"/><path d="M985.24,-104.72L1097.06,56.51" fill="none" stroke="#132e65" stroke-width="1.5"/><path d="M950.79,82.76v0" fill="none" stroke="#132e65" stroke-width="1.5"/><path d="M950.79,82.76l51.2,138.86" fill="none" stroke="#132e65" stroke-width="1.5"/><path d="M950.79,82.76l146.27-26.25" fill="none" stroke="#132e65" stroke-width="1.5"/><path d="M950.79,82.76l145.26,134.57" fill="none" stroke="#132e65" stroke-width="1.5"/><path d="M950.79,82.76l178.04-136.39" fill="none" stroke="#132e65" stroke-width="1.5"/><path d="M950.79,82.76L797.95,249.32" fill="none" stroke="#132e65" stroke-width="1.5"/><path d="M1001.99,221.62v0" fill="none" stroke="#132e65" stroke-width="1.5"/><path d="M1001.99,221.62l94.06-4.29" fill="none" stroke="#132e65" stroke-width="1.5"/><path d="M1001.99,221.62l2.56,123.63" fill="none" stroke="#132e65" stroke-width="1.5"/><path d="M1004.55,345.25v0" fill="none" stroke="#132e65" stroke-width="1.5"/><path d="M1004.55,345.25l88.43,37.08" fill="none" stroke="#132e65" stroke-width="1.5"/><path d="M964.65,489.67v0" fill="none" stroke="#132e65" stroke-width="1.5"/><path d="M964.65,489.67l135.02,8.79" fill="none" stroke="#132e65" stroke-width="1.5"/><path d="M964.65,489.67l39.9-144.42" fill="none" stroke="#132e65" stroke-width="1.5"/><path d="M992.5,650.33v0" fill="none" stroke="#132e65" stroke-width="1.5"/><path d="M992.5,650.33l135.95,21.12" fill="none" stroke="#132e65" stroke-width="1.5"/><path d="M992.5,650.33L964.65,489.67" fill="none" stroke="#132e65" stroke-width="1.5"/><path d="M992.5,650.33l107.17-151.87" fill="none" stroke="#132e65" stroke-width="1.5"/><path d="M992.5,650.33L804.98,537.83" fill="none" stroke="#132e65" stroke-width="1.5"/><path d="M1128.83,-53.63v0" fill="none" stroke="#132e65" stroke-width="1.5"/><path d="M1128.83,-53.63L1097.06,56.51" fill="none" stroke="#132e65" stroke-width="1.5"/><path d="M1128.83,-53.63l122.19-43.09" fill="none" stroke="#132e65" stroke-width="1.5"/><path d="M1097.06,56.51v0" fill="none" stroke="#132e65" stroke-width="1.5"/><path d="M1097.06,56.51l-1.01,160.82" fill="none" stroke="#132e65" stroke-width="1.5"/><path d="M1097.06,56.51l-95.07,165.11" fill="none" stroke="#132e65" stroke-width="1.5"/><path d="M1096.05,217.33v0" fill="none" stroke="#132e65" stroke-width="1.5"/><path d="M1096.05,217.33l-91.5,127.92" fill="none" stroke="#132e65" stroke-width="1.5"/><path d="M1092.98,382.33v0" fill="none" stroke="#132e65" stroke-width="1.5"/><path d="M1092.98,382.33l6.69,116.13" fill="none" stroke="#132e65" stroke-width="1.5"/><path d="M1092.98,382.33l3.07-165" fill="none" stroke="#132e65" stroke-width="1.5"/><path d="M1092.98,382.33L964.65,489.67" fill="none" stroke="#132e65" stroke-width="1.5"/><path d="M1092.98,382.33l-90.99-160.71" fill="none" stroke="#132e65" stroke-width="1.5"/><path d="M1092.98,382.33l165.34,136.42" fill="none" stroke="#132e65" stroke-width="1.5"/><path d="M1099.67,498.46v0" fill="none" stroke="#132e65" stroke-width="1.5"/><path d="M1099.67,498.46l158.65,20.29" fill="none" stroke="#132e65" stroke-width="1.5"/><path d="M1099.67,498.46l28.78,172.99" fill="none" stroke="#132e65" stroke-width="1.5"/><path d="M1099.67,498.46l-95.12-153.21" fill="none" stroke="#132e65" stroke-width="1.5"/><path d="M1128.45,671.45v0" fill="none" stroke="#132e65" stroke-width="1.5"/><path d="M1128.45,671.45l110.49-3.08" fill="none" stroke="#132e65" stroke-width="1.5"/><path d="M1128.45,671.45l129.87-152.7" fill="none" stroke="#132e65" stroke-width="1.5"/><path d="M1251.02,-96.72v0" fill="none" stroke="#132e65" stroke-width="1.5"/><path d="M1251.02,-96.72l57.23,197.9" fill="none" stroke="#132e65" stroke-width="1.5"/><path d="M1308.25,101.18v0" fill="none" stroke="#132e65" stroke-width="1.5"/><path d="M1308.25,101.18l140.62-31.31" fill="none" stroke="#132e65" stroke-width="1.5"/><path d="M1308.25,101.18l153.7,115.96" fill="none" stroke="#132e65" stroke-width="1.5"/><path d="M1308.25,101.18L1097.06,56.51" fill="none" stroke="#132e65" stroke-width="1.5"/><path d="M1308.25,101.18L1128.83,-53.63" fill="none" stroke="#132e65" stroke-width="1.5"/><path d="M1308.25,101.18l-212.2,116.15" fill="none" stroke="#132e65" stroke-width="1.5"/><path d="M1258.32,518.75v0" fill="none" stroke="#132e65" stroke-width="1.5"/><path d="M1258.32,518.75l-19.38,149.62" fill="none" stroke="#132e65" stroke-width="1.5"/><path d="M1258.32,518.75l158.78,42.06" fill="none" stroke="#132e65" stroke-width="1.5"/><path d="M1238.94,668.37v0" fill="none" stroke="#132e65" stroke-width="1.5"/><path d="M1238.94,668.37l187.3,13.35" fill="none" stroke="#132e65" stroke-width="1.5"/><path d="M1238.94,668.37L1417.1,560.81" fill="none" stroke="#132e65" stroke-width="1.5"/><path d="M1238.94,668.37L1099.67,498.46" fill="none" stroke="#132e65" stroke-width="1.5"/><path d="M1238.94,668.37L992.5,650.33" fill="none" stroke="#132e65" stroke-width="1.5"/><path d="M1448.87,69.87v0" fill="none" stroke="#132e65" stroke-width="1.5"/><path d="M1448.87,69.87l13.08,147.27" fill="none" stroke="#132e65" stroke-width="1.5"/><path d="M1461.95,217.14v0" fill="none" stroke="#132e65" stroke-width="1.5"/><path d="M1461.95,217.14l-58.9,130.37" fill="none" stroke="#132e65" stroke-width="1.5"/><path d="M1461.95,217.14l133.34,130.41" fill="none" stroke="#132e65" stroke-width="1.5"/><path d="M1461.95,217.14l144.8-153.79" fill="none" stroke="#132e65" stroke-width="1.5"/><path d="M1403.05,347.51v0" fill="none" stroke="#132e65" stroke-width="1.5"/><path d="M1403.05,347.51l192.24.04" fill="none" stroke="#132e65" stroke-width="1.5"/><path d="M1403.05,347.51l14.05,213.3" fill="none" stroke="#132e65" stroke-width="1.5"/><path d="M1403.05,347.51L1258.32,518.75" fill="none" stroke="#132e65" stroke-width="1.5"/><path d="M1417.1,560.81v0" fill="none" stroke="#132e65" stroke-width="1.5"/><path d="M1417.1,560.81l9.14,120.91" fill="none" stroke="#132e65" stroke-width="1.5"/><path d="M1417.1,560.81l155.84-35.38" fill="none" stroke="#132e65" stroke-width="1.5"/><path d="M1426.24,681.72v0" fill="none" stroke="#132e65" stroke-width="1.5"/><path d="M1426.24,681.72l111.62-13.05" fill="none" stroke="#132e65" stroke-width="1.5"/><path d="M1600.65,-108.17v0" fill="none" stroke="#132e65" stroke-width="1.5"/><path d="M1600.65,-108.17l6.1,171.52" fill="none" stroke="#132e65" stroke-width="1.5"/><path d="M1600.65,-108.17L1448.87,69.87" fill="none" stroke="#132e65" stroke-width="1.5"/><path d="M1606.75,63.35v0" fill="none" stroke="#132e65" stroke-width="1.5"/><path d="M1606.75,63.35l-157.88,6.52" fill="none" stroke="#132e65" stroke-width="1.5"/><path d="M1606.75,63.35l-11.46,284.2" fill="none" stroke="#132e65" stroke-width="1.5"/><path d="M1606.75,63.35l-298.5,37.83" fill="none" stroke="#132e65" stroke-width="1.5"/><path d="M1606.75,63.35l-203.7,284.16" fill="none" stroke="#132e65" stroke-width="1.5"/><path d="M1595.29,347.55v0" fill="none" stroke="#132e65" stroke-width="1.5"/><path d="M1595.29,347.55l-22.35,177.88" fill="none" stroke="#132e65" stroke-width="1.5"/><path d="M1572.94,525.43v0" fill="none" stroke="#132e65" stroke-width="1.5"/><path d="M1572.94,525.43l-35.08,143.24" fill="none" stroke="#132e65" stroke-width="1.5"/><path d="M1537.86,668.67v0" fill="none" stroke="#132e65" stroke-width="1.5"/><path d="M1537.86,668.67L1417.1,560.81" fill="none" stroke="#132e65" stroke-width="1.5"/><circle r="5" transform="translate(-76.7 373.66)" fill="#132e65"/><circle r="5" transform="translate(-48.87 553.01)" fill="#132e65"/><circle r="5" transform="translate(-60.62 652.96)" fill="#132e65"/><circle r="5" transform="translate(79.2 385.38)" fill="#132e65"/><circle r="5" transform="translate(93.95 557.29)" fill="#132e65"/><circle r="5" transform="translate(97.1 656.66)" fill="#132e65"/><circle r="5" transform="translate(201.37 352.05)" fill="#132e65"/><circle r="5" transform="translate(207.49 678.35)" fill="#132e65"/><circle r="5" transform="translate(373.24 355.37)" fill="#132e65"/><circle r="5" transform="translate(354.45 519.84)" fill="#132e65"/><circle r="5" transform="translate(374.84 671.05)" fill="#132e65"/><circle r="5" transform="translate(530.73 400.66)" fill="#132e65"/><circle r="5" transform="translate(514.25 556.55)" fill="#132e65"/><circle r="5" transform="translate(638.38 257.86)" fill="#132e65"/><circle r="5" transform="translate(663.17 375.24)" fill="#132e65"/><circle r="5" transform="translate(680.79 530.23)" fill="#132e65"/><circle r="5" transform="translate(672.73 651.36)" fill="#132e65"/><circle r="5" transform="translate(797.95 249.32)" fill="#132e65"/><circle r="5" transform="translate(830.48 409.62)" fill="#132e65"/><circle r="5" transform="translate(804.98 537.83)" fill="#132e65"/><circle r="5" transform="translate(843.61 642.74)" fill="#132e65"/><circle r="5" transform="translate(985.24-104.72)" fill="#132e65"/><circle r="5" transform="translate(950.79 82.76)" fill="#132e65"/><circle r="5" transform="translate(1001.99 221.62)" fill="#132e65"/><circle r="5" transform="translate(1004.55 345.25)" fill="#132e65"/><circle r="5" transform="translate(964.65 489.67)" fill="#132e65"/><circle r="5" transform="translate(992.5 650.33)" fill="#132e65"/><circle r="5" transform="translate(1128.83-53.63)" fill="#132e65"/><circle r="5" transform="translate(1097.06 56.51)" fill="#132e65"/><circle r="5" transform="translate(1096.05 217.33)" fill="#132e65"/><circle r="5" transform="translate(1092.98 382.33)" fill="#132e65"/><circle r="5" transform="translate(1099.67 498.46)" fill="#132e65"/><circle r="5" transform="translate(1128.45 671.45)" fill="#132e65"/><circle r="5" transform="translate(1251.02-96.72)" fill="#132e65"/><circle r="5" transform="translate(1308.25 101.18)" fill="#132e65"/><circle r="5" transform="translate(1258.32 518.75)" fill="#132e65"/><circle r="5" transform="translate(1238.94 668.37)" fill="#132e65"/><circle r="5" transform="translate(1448.87 69.87)" fill="#132e65"/><circle r="5" transform="translate(1461.95 217.14)" fill="#132e65"/><circle r="5" transform="translate(1403.05 347.51)" fill="#132e65"/><circle r="5" transform="translate(1417.1 560.81)" fill="#132e65"/><circle r="5" transform="translate(1426.24 681.72)" fill="#132e65"/><circle r="5" transform="translate(1600.65-108.17)" fill="#132e65"/><circle r="5" transform="translate(1606.75 63.35)" fill="#132e65"/><circle r="5" transform="translate(1595.29 347.55)" fill="#132e65"/><circle r="5" transform="translate(1572.94 525.43)" fill="#132e65"/><circle r="5" transform="translate(1537.86 668.67)" fill="#132e65"/><path d="M523.85,649.96v0" fill="none" stroke="#2448e3" stroke-width="1.5"/><path d="M523.85,649.96L382.13,673.91" fill="none" stroke="#2448e3" stroke-width="1.5"/><path d="M523.85,649.96l144.03,58.11" fill="none" stroke="#2448e3" stroke-width="1.5"/><path d="M523.85,649.96L489.86,498.31" fill="none" stroke="#2448e3" stroke-width="1.5"/><path d="M523.85,649.96L701.64,531.53" fill="none" stroke="#2448e3" stroke-width="1.5"/><path d="M523.85,649.96L338.81,508.46" fill="none" stroke="#2448e3" stroke-width="1.5"/><path d="M1158.69,207.03v0" fill="none" stroke="#2448e3" stroke-width="1.5"/><path d="M1158.69,207.03l115.27,8.49" fill="none" stroke="#2448e3" stroke-width="1.5"/><path d="M1158.69,207.03l-15.02,160.82" fill="none" stroke="#2448e3" stroke-width="1.5"/><path d="M1270.8,673.99v0" fill="none" stroke="#2448e3" stroke-width="1.5"/><path d="M1270.8,673.99l-15.82-117.96" fill="none" stroke="#2448e3" stroke-width="1.5"/><path d="M1270.8,673.99l-147.83-8.75" fill="none" stroke="#2448e3" stroke-width="1.5"/><path d="M1270.8,673.99l173.82,35.74" fill="none" stroke="#2448e3" stroke-width="1.5"/><path d="M1270.8,673.99l152.32-131.13" fill="none" stroke="#2448e3" stroke-width="1.5"/><path d="M1270.8,673.99L1092.79,495.88" fill="none" stroke="#2448e3" stroke-width="1.5"/><path d="M1270.8,673.99l-20.01-281.2" fill="none" stroke="#2448e3" stroke-width="1.5"/><path d="M1395.56,-41.63v0" fill="none" stroke="#2448e3" stroke-width="1.5"/><path d="M1395.56,-41.63l23.53,110.94" fill="none" stroke="#2448e3" stroke-width="1.5"/><path d="M1395.56,-41.63L1254.41,56.16" fill="none" stroke="#2448e3" stroke-width="1.5"/><path d="M1395.56,-41.63l197.82-48.52" fill="none" stroke="#2448e3" stroke-width="1.5"/><path d="M1395.56,-41.63L1606.54,85.08" fill="none" stroke="#2448e3" stroke-width="1.5"/><path d="M1393.58,248.95v0" fill="none" stroke="#2448e3" stroke-width="1.5"/><path d="M1393.58,248.95l-119.62-33.43" fill="none" stroke="#2448e3" stroke-width="1.5"/><path d="M1393.58,248.95l34.23,141.29" fill="none" stroke="#2448e3" stroke-width="1.5"/><path d="M-54.28,526.01v0" fill="none" stroke="#2448e3" stroke-width="1.5"/><path d="M-54.28,526.01l-48.31,116.91" fill="none" stroke="#2448e3" stroke-width="1.5"/><path d="M-54.28,526.01l148.67-14.7" fill="none" stroke="#2448e3" stroke-width="1.5"/><path d="M-102.59,642.92v0" fill="none" stroke="#2448e3" stroke-width="1.5"/><path d="M-102.59,642.92l166.1,64.34" fill="none" stroke="#2448e3" stroke-width="1.5"/><path d="M94.39,511.31v0" fill="none" stroke="#2448e3" stroke-width="1.5"/><path d="M94.39,511.31l108.07-3.34" fill="none" stroke="#2448e3" stroke-width="1.5"/><path d="M94.39,511.31L63.51,707.26" fill="none" stroke="#2448e3" stroke-width="1.5"/><path d="M94.39,511.31L-102.59,642.92" fill="none" stroke="#2448e3" stroke-width="1.5"/><path d="M94.39,511.31l244.42-2.85" fill="none" stroke="#2448e3" stroke-width="1.5"/><path d="M94.39,511.31l287.74,162.6" fill="none" stroke="#2448e3" stroke-width="1.5"/><path d="M63.51,707.26v0" fill="none" stroke="#2448e3" stroke-width="1.5"/><path d="M63.51,707.26L-54.28,526.01" fill="none" stroke="#2448e3" stroke-width="1.5"/><path d="M63.51,707.26L202.46,507.97" fill="none" stroke="#2448e3" stroke-width="1.5"/><path d="M63.51,707.26l318.62-33.35" fill="none" stroke="#2448e3" stroke-width="1.5"/><path d="M202.46,507.97v0" fill="none" stroke="#2448e3" stroke-width="1.5"/><path d="M202.46,507.97l136.35.49" fill="none" stroke="#2448e3" stroke-width="1.5"/><path d="M202.46,507.97L382.13,673.91" fill="none" stroke="#2448e3" stroke-width="1.5"/><path d="M202.46,507.97L-54.28,526.01" fill="none" stroke="#2448e3" stroke-width="1.5"/><path d="M338.81,508.46v0" fill="none" stroke="#2448e3" stroke-width="1.5"/><path d="M338.81,508.46l151.05-10.15" fill="none" stroke="#2448e3" stroke-width="1.5"/><path d="M338.81,508.46l43.32,165.45" fill="none" stroke="#2448e3" stroke-width="1.5"/><path d="M338.81,508.46L63.51,707.26" fill="none" stroke="#2448e3" stroke-width="1.5"/><path d="M382.13,673.91v0" fill="none" stroke="#2448e3" stroke-width="1.5"/><path d="M489.86,498.31v0" fill="none" stroke="#2448e3" stroke-width="1.5"/><path d="M489.86,498.31L382.13,673.91" fill="none" stroke="#2448e3" stroke-width="1.5"/><path d="M489.86,498.31l211.78,33.22" fill="none" stroke="#2448e3" stroke-width="1.5"/><path d="M701.64,531.53v0" fill="none" stroke="#2448e3" stroke-width="1.5"/><path d="M701.64,531.53L815.36,653.47" fill="none" stroke="#2448e3" stroke-width="1.5"/><path d="M701.64,531.53L667.88,708.07" fill="none" stroke="#2448e3" stroke-width="1.5"/><path d="M667.88,708.07v0" fill="none" stroke="#2448e3" stroke-width="1.5"/><path d="M667.88,708.07l147.48-54.6" fill="none" stroke="#2448e3" stroke-width="1.5"/><path d="M667.88,708.07L489.86,498.31" fill="none" stroke="#2448e3" stroke-width="1.5"/><path d="M667.88,708.07L382.13,673.91" fill="none" stroke="#2448e3" stroke-width="1.5"/><path d="M807.01,371.15v0" fill="none" stroke="#2448e3" stroke-width="1.5"/><path d="M807.01,371.15L701.64,531.53" fill="none" stroke="#2448e3" stroke-width="1.5"/><path d="M807.01,371.15l204.41,15.89" fill="none" stroke="#2448e3" stroke-width="1.5"/><path d="M807.01,371.15L980.65,559.09" fill="none" stroke="#2448e3" stroke-width="1.5"/><path d="M807.01,371.15l8.35,282.32" fill="none" stroke="#2448e3" stroke-width="1.5"/><path d="M807.01,371.15l285.78,124.73" fill="none" stroke="#2448e3" stroke-width="1.5"/><path d="M807.01,371.15L980.12,643.77" fill="none" stroke="#2448e3" stroke-width="1.5"/><path d="M815.36,653.47v0" fill="none" stroke="#2448e3" stroke-width="1.5"/><path d="M815.36,653.47l164.76-9.7" fill="none" stroke="#2448e3" stroke-width="1.5"/><path d="M815.36,653.47l165.29-94.38" fill="none" stroke="#2448e3" stroke-width="1.5"/><path d="M1011.42,387.04v0" fill="none" stroke="#2448e3" stroke-width="1.5"/><path d="M1011.42,387.04l132.25-19.19" fill="none" stroke="#2448e3" stroke-width="1.5"/><path d="M1011.42,387.04l81.37,108.84" fill="none" stroke="#2448e3" stroke-width="1.5"/><path d="M1011.42,387.04L980.65,559.09" fill="none" stroke="#2448e3" stroke-width="1.5"/><path d="M980.65,559.09v0" fill="none" stroke="#2448e3" stroke-width="1.5"/><path d="M980.65,559.09l-.53,84.68" fill="none" stroke="#2448e3" stroke-width="1.5"/><path d="M980.65,559.09l112.14-63.21" fill="none" stroke="#2448e3" stroke-width="1.5"/><path d="M980.12,643.77v0" fill="none" stroke="#2448e3" stroke-width="1.5"/><path d="M980.12,643.77l142.85,21.47" fill="none" stroke="#2448e3" stroke-width="1.5"/><path d="M1143.67,367.85v0" fill="none" stroke="#2448e3" stroke-width="1.5"/><path d="M1143.67,367.85l107.12,24.94" fill="none" stroke="#2448e3" stroke-width="1.5"/><path d="M1143.67,367.85l-50.88,128.03" fill="none" stroke="#2448e3" stroke-width="1.5"/><path d="M1143.67,367.85l130.29-152.33" fill="none" stroke="#2448e3" stroke-width="1.5"/><path d="M1143.67,367.85l111.31,188.18" fill="none" stroke="#2448e3" stroke-width="1.5"/><path d="M1092.79,495.88v0" fill="none" stroke="#2448e3" stroke-width="1.5"/><path d="M1092.79,495.88l30.18,169.36" fill="none" stroke="#2448e3" stroke-width="1.5"/><path d="M1092.79,495.88l162.19,60.15" fill="none" stroke="#2448e3" stroke-width="1.5"/><path d="M1122.97,665.24v0" fill="none" stroke="#2448e3" stroke-width="1.5"/><path d="M1122.97,665.24l132.01-109.21" fill="none" stroke="#2448e3" stroke-width="1.5"/><path d="M1254.41,56.16v0" fill="none" stroke="#2448e3" stroke-width="1.5"/><path d="M1254.41,56.16l19.55,159.36" fill="none" stroke="#2448e3" stroke-width="1.5"/><path d="M1254.41,56.16l164.68,13.15" fill="none" stroke="#2448e3" stroke-width="1.5"/><path d="M1273.96,215.52v0" fill="none" stroke="#2448e3" stroke-width="1.5"/><path d="M1273.96,215.52l-23.17,177.27" fill="none" stroke="#2448e3" stroke-width="1.5"/><path d="M1250.79,392.79v0" fill="none" stroke="#2448e3" stroke-width="1.5"/><path d="M1250.79,392.79l4.19,163.24" fill="none" stroke="#2448e3" stroke-width="1.5"/><path d="M1250.79,392.79l177.02-2.55" fill="none" stroke="#2448e3" stroke-width="1.5"/><path d="M1250.79,392.79l-158,103.09" fill="none" stroke="#2448e3" stroke-width="1.5"/><path d="M1254.98,556.03v0" fill="none" stroke="#2448e3" stroke-width="1.5"/><path d="M1419.09,69.31v0" fill="none" stroke="#2448e3" stroke-width="1.5"/><path d="M1427.81,390.24v0" fill="none" stroke="#2448e3" stroke-width="1.5"/><path d="M1427.81,390.24l-4.69,152.62" fill="none" stroke="#2448e3" stroke-width="1.5"/><path d="M1427.81,390.24l127.01,164.22" fill="none" stroke="#2448e3" stroke-width="1.5"/><path d="M1423.12,542.86v0" fill="none" stroke="#2448e3" stroke-width="1.5"/><path d="M1423.12,542.86l131.7,11.6" fill="none" stroke="#2448e3" stroke-width="1.5"/><path d="M1423.12,542.86l21.5,166.87" fill="none" stroke="#2448e3" stroke-width="1.5"/><path d="M1423.12,542.86l-168.14,13.17" fill="none" stroke="#2448e3" stroke-width="1.5"/><path d="M1444.62,709.73v0" fill="none" stroke="#2448e3" stroke-width="1.5"/><path d="M1444.62,709.73l165.26,1.68" fill="none" stroke="#2448e3" stroke-width="1.5"/><path d="M1593.38,-90.15v0" fill="none" stroke="#2448e3" stroke-width="1.5"/><path d="M1593.38,-90.15l13.16,175.23" fill="none" stroke="#2448e3" stroke-width="1.5"/><path d="M1593.38,-90.15L1419.09,69.31" fill="none" stroke="#2448e3" stroke-width="1.5"/><path d="M1593.38,-90.15L1254.41,56.16" fill="none" stroke="#2448e3" stroke-width="1.5"/><path d="M1606.54,85.08v0" fill="none" stroke="#2448e3" stroke-width="1.5"/><path d="M1606.54,85.08L1419.09,69.31" fill="none" stroke="#2448e3" stroke-width="1.5"/><path d="M1606.54,85.08L1393.58,248.95" fill="none" stroke="#2448e3" stroke-width="1.5"/><path d="M1606.54,85.08L1254.41,56.16" fill="none" stroke="#2448e3" stroke-width="1.5"/><path d="M1606.54,85.08L1427.81,390.24" fill="none" stroke="#2448e3" stroke-width="1.5"/><path d="M1554.82,554.46v0" fill="none" stroke="#2448e3" stroke-width="1.5"/><path d="M1554.82,554.46l55.06,156.95" fill="none" stroke="#2448e3" stroke-width="1.5"/><path d="M1554.82,554.46l-110.2,155.27" fill="none" stroke="#2448e3" stroke-width="1.5"/><path d="M1609.88,711.41v0" fill="none" stroke="#2448e3" stroke-width="1.5"/><path d="M1609.88,711.41L1423.12,542.86" fill="none" stroke="#2448e3" stroke-width="1.5"/><path d="M1609.88,711.41L1270.8,673.99" fill="none" stroke="#2448e3" stroke-width="1.5"/><circle r="25" transform="translate(523.85 649.96)" fill="url(#eCrGzuEMV6w339-fill)"/><circle r="25" transform="translate(1158.69 207.03)" fill="url(#eCrGzuEMV6w340-fill)"/><circle r="25" transform="translate(1270.8 673.99)" fill="url(#eCrGzuEMV6w341-fill)"/><circle r="25" transform="translate(1395.56-41.63)" fill="url(#eCrGzuEMV6w342-fill)"/><circle r="25" transform="translate(1393.58 248.95)" fill="url(#eCrGzuEMV6w343-fill)"/><circle r="5" transform="translate(-54.28 526.01)" fill="#8b9ad9"/><circle r="5" transform="translate(-102.59 642.92)" fill="#8b9ad9"/><circle r="5" transform="translate(94.39 511.31)" fill="#8b9ad9"/><circle r="5" transform="translate(63.51 707.26)" fill="#8b9ad9"/><circle r="5" transform="translate(202.46 507.97)" fill="#8b9ad9"/><circle r="5" transform="translate(338.81 508.46)" fill="#8b9ad9"/><circle r="5" transform="translate(382.13 673.91)" fill="#8b9ad9"/><circle r="5" transform="translate(489.86 498.31)" fill="#8b9ad9"/><circle r="5" transform="translate(701.64 531.53)" fill="#8b9ad9"/><circle r="5" transform="translate(667.88 708.07)" fill="#8b9ad9"/><circle r="5" transform="translate(807.01 371.15)" fill="#8b9ad9"/><circle r="5" transform="translate(815.36 653.47)" fill="#8b9ad9"/><circle r="5" transform="translate(1011.42 387.04)" fill="#8b9ad9"/><circle r="5" transform="translate(980.65 559.09)" fill="#8b9ad9"/><circle r="5" transform="translate(980.12 643.77)" fill="#8b9ad9"/><circle r="5" transform="translate(1143.67 367.85)" fill="#8b9ad9"/><circle r="5" transform="translate(1092.79 495.88)" fill="#8b9ad9"/><circle r="5" transform="translate(1122.97 665.24)" fill="#8b9ad9"/><circle r="5" transform="translate(1254.41 56.16)" fill="#8b9ad9"/><circle r="5" transform="translate(1273.96 215.52)" fill="#8b9ad9"/><circle r="5" transform="translate(1250.79 392.79)" fill="#8b9ad9"/><circle r="5" transform="translate(1419.09 69.31)" fill="#8b9ad9"/><circle r="5" transform="translate(1427.81 390.24)" fill="#8b9ad9"/><circle r="5" transform="translate(1423.12 542.86)" fill="#8b9ad9"/><circle r="5" transform="translate(1444.62 709.73)" fill="#8b9ad9"/><circle r="5" transform="translate(1593.38-90.15)" fill="#8b9ad9"/><circle r="5" transform="translate(1606.54 85.08)" fill="#8b9ad9"/><circle r="5" transform="translate(1554.82 554.46)" fill="#8b9ad9"/><circle r="5" transform="translate(1609.88 711.41)" fill="#8b9ad9"/></g></g><mask id="eCrGzuEMV6w374" mask-type="luminance" x="-150%" y="-150%" height="400%" width="400%"><rect width="1440" height="560" rx="0" ry="0" fill="#fff"/></mask></g><path d="M-216.243125,562.664763q-13.899858-187.089699,1103.022419,61.841528Q-202.343268,749.75446,-216.243125,562.664763Z" fill="#fff" stroke-width="2.88"/><path d="M490.485768,530.684497q713.542534-121.866177,989.110934,31.980262l-9.841344,61.841532C330.754014,650.58628,-1016.66316,483.664908,490.485768,530.684497Z" transform="translate(.000001 0.000002)" fill="#fff" stroke-width="2.88"/><path d="M-87.568334,428.970735Q479.744644,591.632357,726.47438,501.795892l-4.923005,39.086626L2.589168,510.140063q-657.47048-243.830949-90.157502-81.169328Z" transform="translate(.000001 0.000001)" fill="#fff" stroke="#fff" stroke-width="2.88"/></svg>
