<svg xmlns="http://www.w3.org/2000/svg" version="1.1" xmlns:xlink="http://www.w3.org/1999/xlink" xmlns:svgjs="http://svgjs.dev/svgjs" width="1440" height="560" preserveAspectRatio="none" viewBox="0 0 1440 560"><g mask="url(&quot;#SvgjsMask1000&quot;)" fill="none"><rect width="1440" height="560" x="0" y="0" fill="#0e2a47"></rect><path d="M-64.58 355.95L-64.58 355.95" stroke="#132e65" stroke-width="1.5"></path><path d="M-64.58 355.95L64.73 390.72" stroke="#132e65" stroke-width="1.5"></path><path d="M-64.58 355.95L-82.35 558.61" stroke="#132e65" stroke-width="1.5"></path><path d="M-82.35 558.61L-82.35 558.61" stroke="#132e65" stroke-width="1.5"></path><path d="M-82.35 558.61L-109.97 691.66" stroke="#132e65" stroke-width="1.5"></path><path d="M-82.35 558.61L104.89 491.45" stroke="#132e65" stroke-width="1.5"></path><path d="M-82.35 558.61L95.77 691.46" stroke="#132e65" stroke-width="1.5"></path><path d="M-82.35 558.61L64.73 390.72" stroke="#132e65" stroke-width="1.5"></path><path d="M-109.97 691.66L-109.97 691.66" stroke="#132e65" stroke-width="1.5"></path><path d="M-109.97 691.66L95.77 691.46" stroke="#132e65" stroke-width="1.5"></path><path d="M-109.97 691.66L104.89 491.45" stroke="#132e65" stroke-width="1.5"></path><path d="M64.73 390.72L64.73 390.72" stroke="#132e65" stroke-width="1.5"></path><path d="M64.73 390.72L104.89 491.45" stroke="#132e65" stroke-width="1.5"></path><path d="M64.73 390.72L224.23 337.79" stroke="#132e65" stroke-width="1.5"></path><path d="M104.89 491.45L104.89 491.45" stroke="#132e65" stroke-width="1.5"></path><path d="M104.89 491.45L224.23 337.79" stroke="#132e65" stroke-width="1.5"></path><path d="M104.89 491.45L95.77 691.46" stroke="#132e65" stroke-width="1.5"></path><path d="M104.89 491.45L224.61 663.78" stroke="#132e65" stroke-width="1.5"></path><path d="M95.77 691.46L95.77 691.46" stroke="#132e65" stroke-width="1.5"></path><path d="M95.77 691.46L224.61 663.78" stroke="#132e65" stroke-width="1.5"></path><path d="M95.77 691.46L339.82 681.79" stroke="#132e65" stroke-width="1.5"></path><path d="M224.23 337.79L224.23 337.79" stroke="#132e65" stroke-width="1.5"></path><path d="M224.23 337.79L396.34 342.73" stroke="#132e65" stroke-width="1.5"></path><path d="M224.23 337.79L354.14 552.6" stroke="#132e65" stroke-width="1.5"></path><path d="M224.61 663.78L224.61 663.78" stroke="#132e65" stroke-width="1.5"></path><path d="M224.61 663.78L339.82 681.79" stroke="#132e65" stroke-width="1.5"></path><path d="M396.34 342.73L396.34 342.73" stroke="#132e65" stroke-width="1.5"></path><path d="M396.34 342.73L544.48 410.97" stroke="#132e65" stroke-width="1.5"></path><path d="M354.14 552.6L354.14 552.6" stroke="#132e65" stroke-width="1.5"></path><path d="M354.14 552.6L339.82 681.79" stroke="#132e65" stroke-width="1.5"></path><path d="M354.14 552.6L224.61 663.78" stroke="#132e65" stroke-width="1.5"></path><path d="M354.14 552.6L488.92 683.15" stroke="#132e65" stroke-width="1.5"></path><path d="M354.14 552.6L548.44 551.81" stroke="#132e65" stroke-width="1.5"></path><path d="M354.14 552.6L396.34 342.73" stroke="#132e65" stroke-width="1.5"></path><path d="M354.14 552.6L544.48 410.97" stroke="#132e65" stroke-width="1.5"></path><path d="M339.82 681.79L339.82 681.79" stroke="#132e65" stroke-width="1.5"></path><path d="M339.82 681.79L488.92 683.15" stroke="#132e65" stroke-width="1.5"></path><path d="M544.48 410.97L544.48 410.97" stroke="#132e65" stroke-width="1.5"></path><path d="M544.48 410.97L672.06 402.5" stroke="#132e65" stroke-width="1.5"></path><path d="M544.48 410.97L548.44 551.81" stroke="#132e65" stroke-width="1.5"></path><path d="M544.48 410.97L681.17 517.6" stroke="#132e65" stroke-width="1.5"></path><path d="M544.48 410.97L683.08 235.55" stroke="#132e65" stroke-width="1.5"></path><path d="M548.44 551.81L548.44 551.81" stroke="#132e65" stroke-width="1.5"></path><path d="M548.44 551.81L681.17 517.6" stroke="#132e65" stroke-width="1.5"></path><path d="M548.44 551.81L488.92 683.15" stroke="#132e65" stroke-width="1.5"></path><path d="M548.44 551.81L673.48 661.72" stroke="#132e65" stroke-width="1.5"></path><path d="M548.44 551.81L672.06 402.5" stroke="#132e65" stroke-width="1.5"></path><path d="M488.92 683.15L488.92 683.15" stroke="#132e65" stroke-width="1.5"></path><path d="M488.92 683.15L673.48 661.72" stroke="#132e65" stroke-width="1.5"></path><path d="M488.92 683.15L681.17 517.6" stroke="#132e65" stroke-width="1.5"></path><path d="M488.92 683.15L224.61 663.78" stroke="#132e65" stroke-width="1.5"></path><path d="M683.08 235.55L683.08 235.55" stroke="#132e65" stroke-width="1.5"></path><path d="M683.08 235.55L789.39 222.27" stroke="#132e65" stroke-width="1.5"></path><path d="M683.08 235.55L672.06 402.5" stroke="#132e65" stroke-width="1.5"></path><path d="M683.08 235.55L810.75 363.43" stroke="#132e65" stroke-width="1.5"></path><path d="M683.08 235.55L681.17 517.6" stroke="#132e65" stroke-width="1.5"></path><path d="M683.08 235.55L790.31 508.5" stroke="#132e65" stroke-width="1.5"></path><path d="M672.06 402.5L672.06 402.5" stroke="#132e65" stroke-width="1.5"></path><path d="M672.06 402.5L681.17 517.6" stroke="#132e65" stroke-width="1.5"></path><path d="M681.17 517.6L681.17 517.6" stroke="#132e65" stroke-width="1.5"></path><path d="M681.17 517.6L790.31 508.5" stroke="#132e65" stroke-width="1.5"></path><path d="M681.17 517.6L673.48 661.72" stroke="#132e65" stroke-width="1.5"></path><path d="M673.48 661.72L673.48 661.72" stroke="#132e65" stroke-width="1.5"></path><path d="M789.39 222.27L789.39 222.27" stroke="#132e65" stroke-width="1.5"></path><path d="M789.39 222.27L810.75 363.43" stroke="#132e65" stroke-width="1.5"></path><path d="M789.39 222.27L672.06 402.5" stroke="#132e65" stroke-width="1.5"></path><path d="M789.39 222.27L951.83 55.9" stroke="#132e65" stroke-width="1.5"></path><path d="M789.39 222.27L987.97 375.49" stroke="#132e65" stroke-width="1.5"></path><path d="M789.39 222.27L790.31 508.5" stroke="#132e65" stroke-width="1.5"></path><path d="M810.75 363.43L810.75 363.43" stroke="#132e65" stroke-width="1.5"></path><path d="M810.75 363.43L672.06 402.5" stroke="#132e65" stroke-width="1.5"></path><path d="M810.75 363.43L790.31 508.5" stroke="#132e65" stroke-width="1.5"></path><path d="M810.75 363.43L987.97 375.49" stroke="#132e65" stroke-width="1.5"></path><path d="M790.31 508.5L790.31 508.5" stroke="#132e65" stroke-width="1.5"></path><path d="M1005.08 -78L1005.08 -78" stroke="#132e65" stroke-width="1.5"></path><path d="M1005.08 -78L1128.16 -74.89" stroke="#132e65" stroke-width="1.5"></path><path d="M1005.08 -78L951.83 55.9" stroke="#132e65" stroke-width="1.5"></path><path d="M1005.08 -78L1099.7 57.01" stroke="#132e65" stroke-width="1.5"></path><path d="M1005.08 -78L1247.04 -49.43" stroke="#132e65" stroke-width="1.5"></path><path d="M1005.08 -78L1243.47 65.66" stroke="#132e65" stroke-width="1.5"></path><path d="M1005.08 -78L1109.9 245.6" stroke="#132e65" stroke-width="1.5"></path><path d="M951.83 55.9L951.83 55.9" stroke="#132e65" stroke-width="1.5"></path><path d="M951.83 55.9L1099.7 57.01" stroke="#132e65" stroke-width="1.5"></path><path d="M951.83 55.9L1128.16 -74.89" stroke="#132e65" stroke-width="1.5"></path><path d="M951.83 55.9L1109.9 245.6" stroke="#132e65" stroke-width="1.5"></path><path d="M951.83 55.9L1243.47 65.66" stroke="#132e65" stroke-width="1.5"></path><path d="M987.97 375.49L987.97 375.49" stroke="#132e65" stroke-width="1.5"></path><path d="M987.97 375.49L1096.78 340.3" stroke="#132e65" stroke-width="1.5"></path><path d="M987.97 375.49L969.99 550.41" stroke="#132e65" stroke-width="1.5"></path><path d="M969.99 550.41L969.99 550.41" stroke="#132e65" stroke-width="1.5"></path><path d="M969.99 550.41L983.75 690.68" stroke="#132e65" stroke-width="1.5"></path><path d="M969.99 550.41L1142.53 546.15" stroke="#132e65" stroke-width="1.5"></path><path d="M983.75 690.68L983.75 690.68" stroke="#132e65" stroke-width="1.5"></path><path d="M983.75 690.68L1146.36 696.8" stroke="#132e65" stroke-width="1.5"></path><path d="M983.75 690.68L1142.53 546.15" stroke="#132e65" stroke-width="1.5"></path><path d="M983.75 690.68L790.31 508.5" stroke="#132e65" stroke-width="1.5"></path><path d="M983.75 690.68L673.48 661.72" stroke="#132e65" stroke-width="1.5"></path><path d="M1128.16 -74.89L1128.16 -74.89" stroke="#132e65" stroke-width="1.5"></path><path d="M1128.16 -74.89L1247.04 -49.43" stroke="#132e65" stroke-width="1.5"></path><path d="M1128.16 -74.89L1099.7 57.01" stroke="#132e65" stroke-width="1.5"></path><path d="M1099.7 57.01L1099.7 57.01" stroke="#132e65" stroke-width="1.5"></path><path d="M1099.7 57.01L1243.47 65.66" stroke="#132e65" stroke-width="1.5"></path><path d="M1099.7 57.01L1247.04 -49.43" stroke="#132e65" stroke-width="1.5"></path><path d="M1109.9 245.6L1109.9 245.6" stroke="#132e65" stroke-width="1.5"></path><path d="M1109.9 245.6L1096.78 340.3" stroke="#132e65" stroke-width="1.5"></path><path d="M1109.9 245.6L1239.61 194.91" stroke="#132e65" stroke-width="1.5"></path><path d="M1109.9 245.6L987.97 375.49" stroke="#132e65" stroke-width="1.5"></path><path d="M1109.9 245.6L1099.7 57.01" stroke="#132e65" stroke-width="1.5"></path><path d="M1109.9 245.6L1243.47 65.66" stroke="#132e65" stroke-width="1.5"></path><path d="M1109.9 245.6L1309.54 356.66" stroke="#132e65" stroke-width="1.5"></path><path d="M1096.78 340.3L1096.78 340.3" stroke="#132e65" stroke-width="1.5"></path><path d="M1142.53 546.15L1142.53 546.15" stroke="#132e65" stroke-width="1.5"></path><path d="M1142.53 546.15L1238.74 496.96" stroke="#132e65" stroke-width="1.5"></path><path d="M1146.36 696.8L1146.36 696.8" stroke="#132e65" stroke-width="1.5"></path><path d="M1146.36 696.8L1142.53 546.15" stroke="#132e65" stroke-width="1.5"></path><path d="M1146.36 696.8L1309.77 659.41" stroke="#132e65" stroke-width="1.5"></path><path d="M1146.36 696.8L1238.74 496.96" stroke="#132e65" stroke-width="1.5"></path><path d="M1146.36 696.8L969.99 550.41" stroke="#132e65" stroke-width="1.5"></path><path d="M1146.36 696.8L1436.67 696.1" stroke="#132e65" stroke-width="1.5"></path><path d="M1247.04 -49.43L1247.04 -49.43" stroke="#132e65" stroke-width="1.5"></path><path d="M1247.04 -49.43L1243.47 65.66" stroke="#132e65" stroke-width="1.5"></path><path d="M1247.04 -49.43L1397.47 -43.61" stroke="#132e65" stroke-width="1.5"></path><path d="M1243.47 65.66L1243.47 65.66" stroke="#132e65" stroke-width="1.5"></path><path d="M1243.47 65.66L1239.61 194.91" stroke="#132e65" stroke-width="1.5"></path><path d="M1239.61 194.91L1239.61 194.91" stroke="#132e65" stroke-width="1.5"></path><path d="M1239.61 194.91L1309.54 356.66" stroke="#132e65" stroke-width="1.5"></path><path d="M1239.61 194.91L1406.47 259.32" stroke="#132e65" stroke-width="1.5"></path><path d="M1239.61 194.91L1395.78 76.76" stroke="#132e65" stroke-width="1.5"></path><path d="M1309.54 356.66L1309.54 356.66" stroke="#132e65" stroke-width="1.5"></path><path d="M1309.54 356.66L1406.47 259.32" stroke="#132e65" stroke-width="1.5"></path><path d="M1309.54 356.66L1451.42 337.86" stroke="#132e65" stroke-width="1.5"></path><path d="M1309.54 356.66L1238.74 496.96" stroke="#132e65" stroke-width="1.5"></path><path d="M1309.54 356.66L1396.11 539.42" stroke="#132e65" stroke-width="1.5"></path><path d="M1238.74 496.96L1238.74 496.96" stroke="#132e65" stroke-width="1.5"></path><path d="M1238.74 496.96L1396.11 539.42" stroke="#132e65" stroke-width="1.5"></path><path d="M1309.77 659.41L1309.77 659.41" stroke="#132e65" stroke-width="1.5"></path><path d="M1309.77 659.41L1436.67 696.1" stroke="#132e65" stroke-width="1.5"></path><path d="M1309.77 659.41L1396.11 539.42" stroke="#132e65" stroke-width="1.5"></path><path d="M1397.47 -43.61L1397.47 -43.61" stroke="#132e65" stroke-width="1.5"></path><path d="M1397.47 -43.61L1395.78 76.76" stroke="#132e65" stroke-width="1.5"></path><path d="M1397.47 -43.61L1555.64 -86.4" stroke="#132e65" stroke-width="1.5"></path><path d="M1397.47 -43.61L1243.47 65.66" stroke="#132e65" stroke-width="1.5"></path><path d="M1395.78 76.76L1395.78 76.76" stroke="#132e65" stroke-width="1.5"></path><path d="M1395.78 76.76L1243.47 65.66" stroke="#132e65" stroke-width="1.5"></path><path d="M1395.78 76.76L1406.47 259.32" stroke="#132e65" stroke-width="1.5"></path><path d="M1395.78 76.76L1247.04 -49.43" stroke="#132e65" stroke-width="1.5"></path><path d="M1406.47 259.32L1406.47 259.32" stroke="#132e65" stroke-width="1.5"></path><path d="M1406.47 259.32L1451.42 337.86" stroke="#132e65" stroke-width="1.5"></path><path d="M1406.47 259.32L1599.04 202.83" stroke="#132e65" stroke-width="1.5"></path><path d="M1451.42 337.86L1451.42 337.86" stroke="#132e65" stroke-width="1.5"></path><path d="M1451.42 337.86L1600.72 351.96" stroke="#132e65" stroke-width="1.5"></path><path d="M1451.42 337.86L1599.04 202.83" stroke="#132e65" stroke-width="1.5"></path><path d="M1451.42 337.86L1396.11 539.42" stroke="#132e65" stroke-width="1.5"></path><path d="M1451.42 337.86L1582.75 555.47" stroke="#132e65" stroke-width="1.5"></path><path d="M1396.11 539.42L1396.11 539.42" stroke="#132e65" stroke-width="1.5"></path><path d="M1396.11 539.42L1436.67 696.1" stroke="#132e65" stroke-width="1.5"></path><path d="M1396.11 539.42L1582.75 555.47" stroke="#132e65" stroke-width="1.5"></path><path d="M1436.67 696.1L1436.67 696.1" stroke="#132e65" stroke-width="1.5"></path><path d="M1436.67 696.1L1583.61 649.97" stroke="#132e65" stroke-width="1.5"></path><path d="M1436.67 696.1L1582.75 555.47" stroke="#132e65" stroke-width="1.5"></path><path d="M1555.64 -86.4L1555.64 -86.4" stroke="#132e65" stroke-width="1.5"></path><path d="M1555.64 -86.4L1395.78 76.76" stroke="#132e65" stroke-width="1.5"></path><path d="M1555.64 -86.4L1599.04 202.83" stroke="#132e65" stroke-width="1.5"></path><path d="M1555.64 -86.4L1247.04 -49.43" stroke="#132e65" stroke-width="1.5"></path><path d="M1555.64 -86.4L1243.47 65.66" stroke="#132e65" stroke-width="1.5"></path><path d="M1599.04 202.83L1599.04 202.83" stroke="#132e65" stroke-width="1.5"></path><path d="M1599.04 202.83L1600.72 351.96" stroke="#132e65" stroke-width="1.5"></path><path d="M1600.72 351.96L1600.72 351.96" stroke="#132e65" stroke-width="1.5"></path><path d="M1600.72 351.96L1582.75 555.47" stroke="#132e65" stroke-width="1.5"></path><path d="M1600.72 351.96L1406.47 259.32" stroke="#132e65" stroke-width="1.5"></path><path d="M1600.72 351.96L1396.11 539.42" stroke="#132e65" stroke-width="1.5"></path><path d="M1600.72 351.96L1309.54 356.66" stroke="#132e65" stroke-width="1.5"></path><path d="M1582.75 555.47L1582.75 555.47" stroke="#132e65" stroke-width="1.5"></path><path d="M1582.75 555.47L1583.61 649.97" stroke="#132e65" stroke-width="1.5"></path><path d="M1583.61 649.97L1583.61 649.97" stroke="#132e65" stroke-width="1.5"></path><circle r="5" cx="-64.58" cy="355.95" fill="#132e65"></circle><circle r="5" cx="-82.35" cy="558.61" fill="#132e65"></circle><circle r="5" cx="-109.97" cy="691.66" fill="#132e65"></circle><circle r="5" cx="64.73" cy="390.72" fill="#132e65"></circle><circle r="5" cx="104.89" cy="491.45" fill="#132e65"></circle><circle r="5" cx="95.77" cy="691.46" fill="#132e65"></circle><circle r="5" cx="224.23" cy="337.79" fill="#132e65"></circle><circle r="5" cx="224.61" cy="663.78" fill="#132e65"></circle><circle r="5" cx="396.34" cy="342.73" fill="#132e65"></circle><circle r="5" cx="354.14" cy="552.6" fill="#132e65"></circle><circle r="5" cx="339.82" cy="681.79" fill="#132e65"></circle><circle r="5" cx="544.48" cy="410.97" fill="#132e65"></circle><circle r="5" cx="548.44" cy="551.81" fill="#132e65"></circle><circle r="5" cx="488.92" cy="683.15" fill="#132e65"></circle><circle r="5" cx="683.08" cy="235.55" fill="#132e65"></circle><circle r="5" cx="672.06" cy="402.5" fill="#132e65"></circle><circle r="5" cx="681.17" cy="517.6" fill="#132e65"></circle><circle r="5" cx="673.48" cy="661.72" fill="#132e65"></circle><circle r="5" cx="789.39" cy="222.27" fill="#132e65"></circle><circle r="5" cx="810.75" cy="363.43" fill="#132e65"></circle><circle r="5" cx="790.31" cy="508.5" fill="#132e65"></circle><circle r="5" cx="1005.08" cy="-78" fill="#132e65"></circle><circle r="5" cx="951.83" cy="55.9" fill="#132e65"></circle><circle r="5" cx="987.97" cy="375.49" fill="#132e65"></circle><circle r="5" cx="969.99" cy="550.41" fill="#132e65"></circle><circle r="5" cx="983.75" cy="690.68" fill="#132e65"></circle><circle r="5" cx="1128.16" cy="-74.89" fill="#132e65"></circle><circle r="5" cx="1099.7" cy="57.01" fill="#132e65"></circle><circle r="5" cx="1109.9" cy="245.6" fill="#132e65"></circle><circle r="5" cx="1096.78" cy="340.3" fill="#132e65"></circle><circle r="5" cx="1142.53" cy="546.15" fill="#132e65"></circle><circle r="5" cx="1146.36" cy="696.8" fill="#132e65"></circle><circle r="5" cx="1247.04" cy="-49.43" fill="#132e65"></circle><circle r="5" cx="1243.47" cy="65.66" fill="#132e65"></circle><circle r="5" cx="1239.61" cy="194.91" fill="#132e65"></circle><circle r="5" cx="1309.54" cy="356.66" fill="#132e65"></circle><circle r="5" cx="1238.74" cy="496.96" fill="#132e65"></circle><circle r="5" cx="1309.77" cy="659.41" fill="#132e65"></circle><circle r="5" cx="1397.47" cy="-43.61" fill="#132e65"></circle><circle r="5" cx="1395.78" cy="76.76" fill="#132e65"></circle><circle r="5" cx="1406.47" cy="259.32" fill="#132e65"></circle><circle r="5" cx="1451.42" cy="337.86" fill="#132e65"></circle><circle r="5" cx="1396.11" cy="539.42" fill="#132e65"></circle><circle r="5" cx="1436.67" cy="696.1" fill="#132e65"></circle><circle r="5" cx="1555.64" cy="-86.4" fill="#132e65"></circle><circle r="5" cx="1599.04" cy="202.83" fill="#132e65"></circle><circle r="5" cx="1600.72" cy="351.96" fill="#132e65"></circle><circle r="5" cx="1582.75" cy="555.47" fill="#132e65"></circle><circle r="5" cx="1583.61" cy="649.97" fill="#132e65"></circle><path d="M222.32 554.52L222.32 554.52" stroke="hsl(228.5, 77.2%, 51.5%)" stroke-width="1.5"></path><path d="M222.32 554.52L89.07 559" stroke="hsl(228.5, 77.2%, 51.5%)" stroke-width="1.5"></path><path d="M222.32 554.52L358.22 541.45" stroke="hsl(228.5, 77.2%, 51.5%)" stroke-width="1.5"></path><path d="M222.32 554.52L361.12 645.08" stroke="hsl(228.5, 77.2%, 51.5%)" stroke-width="1.5"></path><path d="M222.32 554.52L53.54 647.95" stroke="hsl(228.5, 77.2%, 51.5%)" stroke-width="1.5"></path><path d="M222.32 554.52L521.12 507.93" stroke="hsl(228.5, 77.2%, 51.5%)" stroke-width="1.5"></path><path d="M222.32 554.52L518.35 657.5" stroke="hsl(228.5, 77.2%, 51.5%)" stroke-width="1.5"></path><path d="M1142.1 194.09L1142.1 194.09" stroke="hsl(228.5, 77.2%, 51.5%)" stroke-width="1.5"></path><path d="M1142.1 194.09L1139.46 339.58" stroke="hsl(228.5, 77.2%, 51.5%)" stroke-width="1.5"></path><path d="M1142.1 194.09L1292.81 235.91" stroke="hsl(228.5, 77.2%, 51.5%)" stroke-width="1.5"></path><path d="M1142.1 194.09L1243.28 373.75" stroke="hsl(228.5, 77.2%, 51.5%)" stroke-width="1.5"></path><path d="M1153.85 498.04L1153.85 498.04" stroke="hsl(228.5, 77.2%, 51.5%)" stroke-width="1.5"></path><path d="M1153.85 498.04L1298.97 545.1" stroke="hsl(228.5, 77.2%, 51.5%)" stroke-width="1.5"></path><path d="M1153.85 498.04L1243.28 373.75" stroke="hsl(228.5, 77.2%, 51.5%)" stroke-width="1.5"></path><path d="M1292.81 235.91L1292.81 235.91" stroke="hsl(228.5, 77.2%, 51.5%)" stroke-width="1.5"></path><path d="M1292.81 235.91L1391.59 252.18" stroke="hsl(228.5, 77.2%, 51.5%)" stroke-width="1.5"></path><path d="M1292.81 235.91L1243.28 373.75" stroke="hsl(228.5, 77.2%, 51.5%)" stroke-width="1.5"></path><path d="M1243.28 373.75L1243.28 373.75" stroke="hsl(228.5, 77.2%, 51.5%)" stroke-width="1.5"></path><path d="M1243.28 373.75L1139.46 339.58" stroke="hsl(228.5, 77.2%, 51.5%)" stroke-width="1.5"></path><path d="M1243.28 373.75L1298.97 545.1" stroke="hsl(228.5, 77.2%, 51.5%)" stroke-width="1.5"></path><path d="M1243.28 373.75L1391.59 252.18" stroke="hsl(228.5, 77.2%, 51.5%)" stroke-width="1.5"></path><path d="M1243.28 373.75L1435.92 391.18" stroke="hsl(228.5, 77.2%, 51.5%)" stroke-width="1.5"></path><path d="M1391.59 252.18L1391.59 252.18" stroke="hsl(228.5, 77.2%, 51.5%)" stroke-width="1.5"></path><path d="M1391.59 252.18L1435.92 391.18" stroke="hsl(228.5, 77.2%, 51.5%)" stroke-width="1.5"></path><path d="M1391.59 252.18L1435.93 107.48" stroke="hsl(228.5, 77.2%, 51.5%)" stroke-width="1.5"></path><path d="M1391.59 252.18L1592.8 195.57" stroke="hsl(228.5, 77.2%, 51.5%)" stroke-width="1.5"></path><path d="M1590.37 -70.87L1590.37 -70.87" stroke="hsl(228.5, 77.2%, 51.5%)" stroke-width="1.5"></path><path d="M1590.37 -70.87L1602.73 83.4" stroke="hsl(228.5, 77.2%, 51.5%)" stroke-width="1.5"></path><path d="M1590.37 -70.87L1402.51 -104.33" stroke="hsl(228.5, 77.2%, 51.5%)" stroke-width="1.5"></path><path d="M1590.37 -70.87L1435.93 107.48" stroke="hsl(228.5, 77.2%, 51.5%)" stroke-width="1.5"></path><path d="M1590.37 -70.87L1592.8 195.57" stroke="hsl(228.5, 77.2%, 51.5%)" stroke-width="1.5"></path><path d="M1602.73 83.4L1602.73 83.4" stroke="hsl(228.5, 77.2%, 51.5%)" stroke-width="1.5"></path><path d="M1602.73 83.4L1592.8 195.57" stroke="hsl(228.5, 77.2%, 51.5%)" stroke-width="1.5"></path><path d="M1602.73 83.4L1435.93 107.48" stroke="hsl(228.5, 77.2%, 51.5%)" stroke-width="1.5"></path><path d="M1602.73 83.4L1391.59 252.18" stroke="hsl(228.5, 77.2%, 51.5%)" stroke-width="1.5"></path><path d="M1602.73 83.4L1402.51 -104.33" stroke="hsl(228.5, 77.2%, 51.5%)" stroke-width="1.5"></path><path d="M1602.73 83.4L1303.97 60.18" stroke="hsl(228.5, 77.2%, 51.5%)" stroke-width="1.5"></path><path d="M-108.58 553.65L-108.58 553.65" stroke="hsl(228.5, 77.2%, 51.5%)" stroke-width="1.5"></path><path d="M-108.58 553.65L-85.58 699.89" stroke="hsl(228.5, 77.2%, 51.5%)" stroke-width="1.5"></path><path d="M-108.58 553.65L53.54 647.95" stroke="hsl(228.5, 77.2%, 51.5%)" stroke-width="1.5"></path><path d="M-108.58 553.65L89.07 559" stroke="hsl(228.5, 77.2%, 51.5%)" stroke-width="1.5"></path><path d="M-108.58 553.65L222.32 554.52" stroke="hsl(228.5, 77.2%, 51.5%)" stroke-width="1.5"></path><path d="M-108.58 553.65L358.22 541.45" stroke="hsl(228.5, 77.2%, 51.5%)" stroke-width="1.5"></path><path d="M-108.58 553.65L361.12 645.08" stroke="hsl(228.5, 77.2%, 51.5%)" stroke-width="1.5"></path><path d="M-85.58 699.89L-85.58 699.89" stroke="hsl(228.5, 77.2%, 51.5%)" stroke-width="1.5"></path><path d="M-85.58 699.89L53.54 647.95" stroke="hsl(228.5, 77.2%, 51.5%)" stroke-width="1.5"></path><path d="M-85.58 699.89L89.07 559" stroke="hsl(228.5, 77.2%, 51.5%)" stroke-width="1.5"></path><path d="M89.07 559L89.07 559" stroke="hsl(228.5, 77.2%, 51.5%)" stroke-width="1.5"></path><path d="M89.07 559L53.54 647.95" stroke="hsl(228.5, 77.2%, 51.5%)" stroke-width="1.5"></path><path d="M53.54 647.95L53.54 647.95" stroke="hsl(228.5, 77.2%, 51.5%)" stroke-width="1.5"></path><path d="M358.22 541.45L358.22 541.45" stroke="hsl(228.5, 77.2%, 51.5%)" stroke-width="1.5"></path><path d="M358.22 541.45L361.12 645.08" stroke="hsl(228.5, 77.2%, 51.5%)" stroke-width="1.5"></path><path d="M358.22 541.45L521.12 507.93" stroke="hsl(228.5, 77.2%, 51.5%)" stroke-width="1.5"></path><path d="M358.22 541.45L518.35 657.5" stroke="hsl(228.5, 77.2%, 51.5%)" stroke-width="1.5"></path><path d="M358.22 541.45L89.07 559" stroke="hsl(228.5, 77.2%, 51.5%)" stroke-width="1.5"></path><path d="M358.22 541.45L673.84 527.66" stroke="hsl(228.5, 77.2%, 51.5%)" stroke-width="1.5"></path><path d="M361.12 645.08L361.12 645.08" stroke="hsl(228.5, 77.2%, 51.5%)" stroke-width="1.5"></path><path d="M361.12 645.08L518.35 657.5" stroke="hsl(228.5, 77.2%, 51.5%)" stroke-width="1.5"></path><path d="M521.12 507.93L521.12 507.93" stroke="hsl(228.5, 77.2%, 51.5%)" stroke-width="1.5"></path><path d="M521.12 507.93L518.35 657.5" stroke="hsl(228.5, 77.2%, 51.5%)" stroke-width="1.5"></path><path d="M521.12 507.93L673.84 527.66" stroke="hsl(228.5, 77.2%, 51.5%)" stroke-width="1.5"></path><path d="M521.12 507.93L361.12 645.08" stroke="hsl(228.5, 77.2%, 51.5%)" stroke-width="1.5"></path><path d="M521.12 507.93L707.58 649.84" stroke="hsl(228.5, 77.2%, 51.5%)" stroke-width="1.5"></path><path d="M518.35 657.5L518.35 657.5" stroke="hsl(228.5, 77.2%, 51.5%)" stroke-width="1.5"></path><path d="M518.35 657.5L707.58 649.84" stroke="hsl(228.5, 77.2%, 51.5%)" stroke-width="1.5"></path><path d="M673.84 527.66L673.84 527.66" stroke="hsl(228.5, 77.2%, 51.5%)" stroke-width="1.5"></path><path d="M673.84 527.66L707.58 649.84" stroke="hsl(228.5, 77.2%, 51.5%)" stroke-width="1.5"></path><path d="M673.84 527.66L859.11 506.29" stroke="hsl(228.5, 77.2%, 51.5%)" stroke-width="1.5"></path><path d="M673.84 527.66L518.35 657.5" stroke="hsl(228.5, 77.2%, 51.5%)" stroke-width="1.5"></path><path d="M673.84 527.66L805.22 709.55" stroke="hsl(228.5, 77.2%, 51.5%)" stroke-width="1.5"></path><path d="M707.58 649.84L707.58 649.84" stroke="hsl(228.5, 77.2%, 51.5%)" stroke-width="1.5"></path><path d="M707.58 649.84L805.22 709.55" stroke="hsl(228.5, 77.2%, 51.5%)" stroke-width="1.5"></path><path d="M707.58 649.84L859.11 506.29" stroke="hsl(228.5, 77.2%, 51.5%)" stroke-width="1.5"></path><path d="M707.58 649.84L949.9 491.85" stroke="hsl(228.5, 77.2%, 51.5%)" stroke-width="1.5"></path><path d="M825.01 358.97L825.01 358.97" stroke="hsl(228.5, 77.2%, 51.5%)" stroke-width="1.5"></path><path d="M825.01 358.97L859.11 506.29" stroke="hsl(228.5, 77.2%, 51.5%)" stroke-width="1.5"></path><path d="M825.01 358.97L1001.35 389.84" stroke="hsl(228.5, 77.2%, 51.5%)" stroke-width="1.5"></path><path d="M825.01 358.97L949.9 491.85" stroke="hsl(228.5, 77.2%, 51.5%)" stroke-width="1.5"></path><path d="M825.01 358.97L673.84 527.66" stroke="hsl(228.5, 77.2%, 51.5%)" stroke-width="1.5"></path><path d="M859.11 506.29L859.11 506.29" stroke="hsl(228.5, 77.2%, 51.5%)" stroke-width="1.5"></path><path d="M859.11 506.29L949.9 491.85" stroke="hsl(228.5, 77.2%, 51.5%)" stroke-width="1.5"></path><path d="M805.22 709.55L805.22 709.55" stroke="hsl(228.5, 77.2%, 51.5%)" stroke-width="1.5"></path><path d="M805.22 709.55L997.68 689.45" stroke="hsl(228.5, 77.2%, 51.5%)" stroke-width="1.5"></path><path d="M805.22 709.55L859.11 506.29" stroke="hsl(228.5, 77.2%, 51.5%)" stroke-width="1.5"></path><path d="M1001.35 389.84L1001.35 389.84" stroke="hsl(228.5, 77.2%, 51.5%)" stroke-width="1.5"></path><path d="M1001.35 389.84L949.9 491.85" stroke="hsl(228.5, 77.2%, 51.5%)" stroke-width="1.5"></path><path d="M1001.35 389.84L1139.46 339.58" stroke="hsl(228.5, 77.2%, 51.5%)" stroke-width="1.5"></path><path d="M1001.35 389.84L859.11 506.29" stroke="hsl(228.5, 77.2%, 51.5%)" stroke-width="1.5"></path><path d="M949.9 491.85L949.9 491.85" stroke="hsl(228.5, 77.2%, 51.5%)" stroke-width="1.5"></path><path d="M997.68 689.45L997.68 689.45" stroke="hsl(228.5, 77.2%, 51.5%)" stroke-width="1.5"></path><path d="M997.68 689.45L1127.78 705.57" stroke="hsl(228.5, 77.2%, 51.5%)" stroke-width="1.5"></path><path d="M997.68 689.45L949.9 491.85" stroke="hsl(228.5, 77.2%, 51.5%)" stroke-width="1.5"></path><path d="M1139.46 339.58L1139.46 339.58" stroke="hsl(228.5, 77.2%, 51.5%)" stroke-width="1.5"></path><path d="M1139.46 339.58L1153.85 498.04" stroke="hsl(228.5, 77.2%, 51.5%)" stroke-width="1.5"></path><path d="M1139.46 339.58L1292.81 235.91" stroke="hsl(228.5, 77.2%, 51.5%)" stroke-width="1.5"></path><path d="M1127.78 705.57L1127.78 705.57" stroke="hsl(228.5, 77.2%, 51.5%)" stroke-width="1.5"></path><path d="M1127.78 705.57L1295.81 670.97" stroke="hsl(228.5, 77.2%, 51.5%)" stroke-width="1.5"></path><path d="M1127.78 705.57L1153.85 498.04" stroke="hsl(228.5, 77.2%, 51.5%)" stroke-width="1.5"></path><path d="M1127.78 705.57L1298.97 545.1" stroke="hsl(228.5, 77.2%, 51.5%)" stroke-width="1.5"></path><path d="M1303.54 -66.15L1303.54 -66.15" stroke="hsl(228.5, 77.2%, 51.5%)" stroke-width="1.5"></path><path d="M1303.54 -66.15L1402.51 -104.33" stroke="hsl(228.5, 77.2%, 51.5%)" stroke-width="1.5"></path><path d="M1303.54 -66.15L1303.97 60.18" stroke="hsl(228.5, 77.2%, 51.5%)" stroke-width="1.5"></path><path d="M1303.97 60.18L1303.97 60.18" stroke="hsl(228.5, 77.2%, 51.5%)" stroke-width="1.5"></path><path d="M1303.97 60.18L1435.93 107.48" stroke="hsl(228.5, 77.2%, 51.5%)" stroke-width="1.5"></path><path d="M1303.97 60.18L1292.81 235.91" stroke="hsl(228.5, 77.2%, 51.5%)" stroke-width="1.5"></path><path d="M1298.97 545.1L1298.97 545.1" stroke="hsl(228.5, 77.2%, 51.5%)" stroke-width="1.5"></path><path d="M1298.97 545.1L1407.73 489.09" stroke="hsl(228.5, 77.2%, 51.5%)" stroke-width="1.5"></path><path d="M1298.97 545.1L1295.81 670.97" stroke="hsl(228.5, 77.2%, 51.5%)" stroke-width="1.5"></path><path d="M1298.97 545.1L1418.53 657.87" stroke="hsl(228.5, 77.2%, 51.5%)" stroke-width="1.5"></path><path d="M1295.81 670.97L1295.81 670.97" stroke="hsl(228.5, 77.2%, 51.5%)" stroke-width="1.5"></path><path d="M1295.81 670.97L1418.53 657.87" stroke="hsl(228.5, 77.2%, 51.5%)" stroke-width="1.5"></path><path d="M1295.81 670.97L1407.73 489.09" stroke="hsl(228.5, 77.2%, 51.5%)" stroke-width="1.5"></path><path d="M1402.51 -104.33L1402.51 -104.33" stroke="hsl(228.5, 77.2%, 51.5%)" stroke-width="1.5"></path><path d="M1402.51 -104.33L1303.97 60.18" stroke="hsl(228.5, 77.2%, 51.5%)" stroke-width="1.5"></path><path d="M1435.93 107.48L1435.93 107.48" stroke="hsl(228.5, 77.2%, 51.5%)" stroke-width="1.5"></path><path d="M1435.93 107.48L1592.8 195.57" stroke="hsl(228.5, 77.2%, 51.5%)" stroke-width="1.5"></path><path d="M1435.92 391.18L1435.92 391.18" stroke="hsl(228.5, 77.2%, 51.5%)" stroke-width="1.5"></path><path d="M1435.92 391.18L1407.73 489.09" stroke="hsl(228.5, 77.2%, 51.5%)" stroke-width="1.5"></path><path d="M1435.92 391.18L1559.5 393.16" stroke="hsl(228.5, 77.2%, 51.5%)" stroke-width="1.5"></path><path d="M1435.92 391.18L1298.97 545.1" stroke="hsl(228.5, 77.2%, 51.5%)" stroke-width="1.5"></path><path d="M1435.92 391.18L1292.81 235.91" stroke="hsl(228.5, 77.2%, 51.5%)" stroke-width="1.5"></path><path d="M1407.73 489.09L1407.73 489.09" stroke="hsl(228.5, 77.2%, 51.5%)" stroke-width="1.5"></path><path d="M1407.73 489.09L1418.53 657.87" stroke="hsl(228.5, 77.2%, 51.5%)" stroke-width="1.5"></path><path d="M1407.73 489.09L1559.5 393.16" stroke="hsl(228.5, 77.2%, 51.5%)" stroke-width="1.5"></path><path d="M1407.73 489.09L1580.2 561.16" stroke="hsl(228.5, 77.2%, 51.5%)" stroke-width="1.5"></path><path d="M1418.53 657.87L1418.53 657.87" stroke="hsl(228.5, 77.2%, 51.5%)" stroke-width="1.5"></path><path d="M1418.53 657.87L1582.82 641.46" stroke="hsl(228.5, 77.2%, 51.5%)" stroke-width="1.5"></path><path d="M1592.8 195.57L1592.8 195.57" stroke="hsl(228.5, 77.2%, 51.5%)" stroke-width="1.5"></path><path d="M1592.8 195.57L1559.5 393.16" stroke="hsl(228.5, 77.2%, 51.5%)" stroke-width="1.5"></path><path d="M1592.8 195.57L1435.92 391.18" stroke="hsl(228.5, 77.2%, 51.5%)" stroke-width="1.5"></path><path d="M1559.5 393.16L1559.5 393.16" stroke="hsl(228.5, 77.2%, 51.5%)" stroke-width="1.5"></path><path d="M1559.5 393.16L1580.2 561.16" stroke="hsl(228.5, 77.2%, 51.5%)" stroke-width="1.5"></path><path d="M1559.5 393.16L1391.59 252.18" stroke="hsl(228.5, 77.2%, 51.5%)" stroke-width="1.5"></path><path d="M1559.5 393.16L1582.82 641.46" stroke="hsl(228.5, 77.2%, 51.5%)" stroke-width="1.5"></path><path d="M1580.2 561.16L1580.2 561.16" stroke="hsl(228.5, 77.2%, 51.5%)" stroke-width="1.5"></path><path d="M1580.2 561.16L1582.82 641.46" stroke="hsl(228.5, 77.2%, 51.5%)" stroke-width="1.5"></path><path d="M1580.2 561.16L1418.53 657.87" stroke="hsl(228.5, 77.2%, 51.5%)" stroke-width="1.5"></path><path d="M1580.2 561.16L1435.92 391.18" stroke="hsl(228.5, 77.2%, 51.5%)" stroke-width="1.5"></path><path d="M1582.82 641.46L1582.82 641.46" stroke="hsl(228.5, 77.2%, 51.5%)" stroke-width="1.5"></path><path d="M1582.82 641.46L1407.73 489.09" stroke="hsl(228.5, 77.2%, 51.5%)" stroke-width="1.5"></path><path d="M1582.82 641.46L1295.81 670.97" stroke="hsl(228.5, 77.2%, 51.5%)" stroke-width="1.5"></path><circle r="25" cx="222.32" cy="554.52" fill="url(&quot;#SvgjsRadialGradient1001&quot;)"></circle><circle r="25" cx="1142.1" cy="194.09" fill="url(&quot;#SvgjsRadialGradient1001&quot;)"></circle><circle r="25" cx="1153.85" cy="498.04" fill="url(&quot;#SvgjsRadialGradient1001&quot;)"></circle><circle r="25" cx="1292.81" cy="235.91" fill="url(&quot;#SvgjsRadialGradient1001&quot;)"></circle><circle r="25" cx="1243.28" cy="373.75" fill="url(&quot;#SvgjsRadialGradient1001&quot;)"></circle><circle r="25" cx="1391.59" cy="252.18" fill="url(&quot;#SvgjsRadialGradient1001&quot;)"></circle><circle r="25" cx="1590.37" cy="-70.87" fill="url(&quot;#SvgjsRadialGradient1001&quot;)"></circle><circle r="25" cx="1602.73" cy="83.4" fill="url(&quot;#SvgjsRadialGradient1001&quot;)"></circle><circle r="5" cx="-108.58" cy="553.65" fill="#8b9ad9"></circle><circle r="5" cx="-85.58" cy="699.89" fill="#8b9ad9"></circle><circle r="5" cx="89.07" cy="559" fill="#8b9ad9"></circle><circle r="5" cx="53.54" cy="647.95" fill="#8b9ad9"></circle><circle r="5" cx="358.22" cy="541.45" fill="#8b9ad9"></circle><circle r="5" cx="361.12" cy="645.08" fill="#8b9ad9"></circle><circle r="5" cx="521.12" cy="507.93" fill="#8b9ad9"></circle><circle r="5" cx="518.35" cy="657.5" fill="#8b9ad9"></circle><circle r="5" cx="673.84" cy="527.66" fill="#8b9ad9"></circle><circle r="5" cx="707.58" cy="649.84" fill="#8b9ad9"></circle><circle r="5" cx="825.01" cy="358.97" fill="#8b9ad9"></circle><circle r="5" cx="859.11" cy="506.29" fill="#8b9ad9"></circle><circle r="5" cx="805.22" cy="709.55" fill="#8b9ad9"></circle><circle r="5" cx="1001.35" cy="389.84" fill="#8b9ad9"></circle><circle r="5" cx="949.9" cy="491.85" fill="#8b9ad9"></circle><circle r="5" cx="997.68" cy="689.45" fill="#8b9ad9"></circle><circle r="5" cx="1139.46" cy="339.58" fill="#8b9ad9"></circle><circle r="5" cx="1127.78" cy="705.57" fill="#8b9ad9"></circle><circle r="5" cx="1303.54" cy="-66.15" fill="#8b9ad9"></circle><circle r="5" cx="1303.97" cy="60.18" fill="#8b9ad9"></circle><circle r="5" cx="1298.97" cy="545.1" fill="#8b9ad9"></circle><circle r="5" cx="1295.81" cy="670.97" fill="#8b9ad9"></circle><circle r="5" cx="1402.51" cy="-104.33" fill="#8b9ad9"></circle><circle r="5" cx="1435.93" cy="107.48" fill="#8b9ad9"></circle><circle r="5" cx="1435.92" cy="391.18" fill="#8b9ad9"></circle><circle r="5" cx="1407.73" cy="489.09" fill="#8b9ad9"></circle><circle r="5" cx="1418.53" cy="657.87" fill="#8b9ad9"></circle><circle r="5" cx="1592.8" cy="195.57" fill="#8b9ad9"></circle><circle r="5" cx="1559.5" cy="393.16" fill="#8b9ad9"></circle><circle r="5" cx="1580.2" cy="561.16" fill="#8b9ad9"></circle><circle r="5" cx="1582.82" cy="641.46" fill="#8b9ad9"></circle></g><defs><mask id="SvgjsMask1000"><rect width="1440" height="560" fill="#ffffff"></rect></mask><radialGradient id="SvgjsRadialGradient1001"><stop stop-color="#ffffff" offset="0.1"></stop><stop stop-color="#1735b3" offset="0.2"></stop><stop stop-color="rgba(23, 53, 179, 0)" offset="1"></stop></radialGradient></defs></svg>