<?xml version="1.0" standalone="no"?>
<!DOCTYPE svg PUBLIC "-//W3C//DTD SVG 20010904//EN"
 "http://www.w3.org/TR/2001/REC-SVG-20010904/DTD/svg10.dtd">
<svg version="1.0" xmlns="http://www.w3.org/2000/svg"
 width="466.000000pt" height="199.000000pt" viewBox="0 0 466.000000 199.000000"
 preserveAspectRatio="xMidYMid meet">

<g transform="translate(0.000000,199.000000) scale(0.100000,-0.100000)"
fill="#FFFFFF" stroke="none">
<path d="M1190 1160 l0 -510 105 0 105 0 0 115 c0 63 3 115 8 115 4 0 59 -52
122 -115 l115 -115 208 0 c203 0 208 0 202 20 -10 33 4 44 29 22 44 -40 89
-55 166 -56 60 0 85 4 124 23 55 27 103 70 131 117 l18 32 32 -47 c80 -117
245 -162 365 -101 20 10 42 26 49 34 20 24 31 19 31 -14 l0 -30 104 0 105 0 0
291 c0 160 -3 297 -6 305 -4 11 -28 14 -104 14 -99 0 -99 0 -99 -25 0 -31 -2
-31 -48 0 -76 50 -202 56 -286 13 -45 -23 -93 -69 -122 -115 l-20 -33 -34 53
c-83 125 -268 163 -392 81 -21 -13 -38 -21 -38 -17 0 5 -2 107 -3 228 l-2 220
-105 0 -105 0 -3 -202 -2 -203 -113 0 -112 0 -100 -100 c-55 -55 -103 -100
-107 -100 -5 0 -8 137 -8 305 l0 305 -105 0 -105 0 0 -510z m652 -430 c-1 -2
-57 50 -124 117 l-121 121 119 122 119 122 5 -239 c3 -131 4 -240 2 -243z
m406 356 c49 -26 75 -62 80 -114 8 -85 -42 -149 -124 -158 -41 -5 -55 -2 -84
18 -65 44 -87 122 -51 188 36 69 116 99 179 66z m670 0 c49 -26 75 -62 80
-115 6 -62 -24 -121 -74 -145 -46 -21 -79 -20 -129 4 -54 26 -80 79 -73 145
11 94 115 153 196 111z"/>
<path d="M4360 1441 l0 -229 -57 31 c-51 28 -67 32 -138 32 -64 0 -89 -5 -125
-23 -57 -30 -95 -66 -127 -120 l-26 -44 -13 37 c-29 86 -110 136 -229 143 -77
3 -82 2 -137 -31 l-58 -36 0 30 0 29 -105 0 -105 0 0 -305 0 -305 105 0 105 0
0 188 c0 200 2 210 55 254 28 24 96 23 128 -2 39 -31 47 -77 47 -267 l0 -173
105 0 105 0 0 82 0 82 30 -47 c88 -140 286 -177 413 -77 l27 21 0 -30 0 -31
105 0 105 0 0 510 0 510 -105 0 -105 0 0 -229z m-72 -355 c120 -62 96 -248
-35 -272 -53 -10 -112 13 -140 55 -29 43 -31 122 -4 167 34 56 120 80 179 50z"/>
<path d="M177 1484 c-4 -4 -7 -56 -7 -116 l0 -108 -39 0 -39 0 -4 -80 -3 -79
42 -3 43 -3 3 -150 c3 -125 7 -158 24 -195 39 -87 118 -128 222 -115 31 4 69
14 84 22 29 15 31 25 10 80 -4 10 12 1 40 -24 102 -94 226 -107 341 -38 l56
34 0 -30 0 -29 105 0 105 0 0 305 0 305 -105 0 -105 0 0 -25 c0 -31 -3 -31
-43 -1 -43 32 -126 50 -190 42 -66 -9 -122 -36 -169 -82 l-38 -36 0 51 0 51
-60 0 -59 0 -3 113 -3 112 -101 3 c-55 1 -103 0 -107 -4z m286 -436 c-14 -51
-13 -162 2 -200 5 -13 0 -19 -20 -24 -43 -11 -50 6 -55 146 l-5 130 46 0 46 0
-14 -52z m414 35 c47 -22 73 -66 73 -125 0 -62 -12 -91 -50 -118 -91 -65 -209
-15 -226 95 -17 115 98 198 203 148z"/>
<path d="M2470 480 c0 -5 7 -10 16 -10 8 0 12 5 9 10 -3 6 -10 10 -16 10 -5 0
-9 -4 -9 -10z"/>
<path d="M1385 436 c-25 -18 -13 -44 25 -57 16 -6 30 -17 30 -25 0 -16 -36
-19 -45 -4 -9 15 -25 12 -25 -5 0 -18 40 -29 69 -20 31 10 28 53 -4 61 -34 8
-52 32 -31 40 9 3 23 1 30 -5 9 -8 16 -8 20 -2 4 6 -2 15 -13 20 -26 14 -33
14 -56 -3z"/>
<path d="M1662 434 c-30 -21 -30 -77 0 -98 28 -20 62 -21 77 -3 15 19 3 28
-20 14 -14 -9 -24 -9 -36 -1 -34 21 -26 34 21 34 39 0 46 3 46 19 0 20 -34 51
-55 51 -6 0 -21 -7 -33 -16z m68 -29 c0 -3 -17 -5 -37 -5 -35 1 -37 2 -19 15
13 10 24 11 37 4 11 -5 19 -12 19 -14z"/>
<path d="M1975 440 c-3 -5 -12 -7 -20 -3 -12 4 -15 -6 -15 -56 0 -34 4 -61 10
-61 6 0 10 22 10 50 0 45 3 50 25 56 14 3 25 10 25 15 0 12 -27 12 -35 -1z"/>
<path d="M2702 434 c-28 -20 -30 -74 -3 -98 22 -20 72 -18 79 2 3 9 -3 11 -22
6 -32 -8 -56 10 -56 42 0 27 28 45 58 37 25 -6 30 12 6 21 -24 9 -38 7 -62
-10z"/>
<path d="M2987 439 c-26 -15 -36 -49 -25 -82 11 -29 43 -43 77 -32 30 9 26 27
-4 19 -25 -6 -55 9 -55 27 0 5 20 9 45 9 38 0 45 3 45 19 0 20 -35 51 -55 51
-5 0 -18 -5 -28 -11z m53 -30 c0 -5 -15 -9 -32 -9 -31 1 -32 2 -15 15 19 14
47 10 47 -6z"/>
<path d="M3268 439 c-29 -16 -21 -44 17 -62 19 -9 35 -21 35 -27 0 -13 -43
-13 -57 1 -8 8 -13 8 -17 0 -10 -16 38 -35 68 -27 19 5 26 13 26 30 0 19 -8
27 -36 36 -43 15 -39 36 7 33 32 -3 33 -2 15 12 -23 17 -34 18 -58 4z"/>
<path d="M2180 435 c0 -15 51 -115 58 -115 12 0 57 109 48 117 -7 8 -7 8 -30
-41 l-17 -40 -19 42 c-11 23 -24 42 -30 42 -5 0 -10 -2 -10 -5z"/>
<path d="M2472 385 c4 -71 22 -71 26 0 2 45 0 55 -13 55 -13 0 -15 -10 -13
-55z"/>
</g>
</svg>
