<?xml version="1.0" standalone="no"?>
<!DOCTYPE svg PUBLIC "-//W3C//DTD SVG 20010904//EN"
 "http://www.w3.org/TR/2001/REC-SVG-20010904/DTD/svg10.dtd">
<svg version="1.0" xmlns="http://www.w3.org/2000/svg"
 width="500.000000pt" height="500.000000pt" viewBox="0 0 500.000000 500.000000"
 preserveAspectRatio="xMidYMid meet">

<g transform="translate(0.000000,500.000000) scale(0.100000,-0.100000)"
fill="#FFFFFF" stroke="none">
<path d="M2381 3415 c-164 -37 -304 -194 -327 -367 -8 -58 12 -67 21 -10 10
59 52 152 93 207 83 110 257 180 389 158 189 -33 319 -158 357 -346 7 -33 18
-63 24 -65 33 -11 -5 140 -59 230 -46 79 -100 125 -194 170 -59 27 -83 32
-155 35 -48 1 -112 -4 -149 -12z"/>
<path d="M2422 3280 c-72 -15 -133 -63 -192 -149 -23 -34 -42 -114 -33 -138 9
-23 23 -14 23 15 0 84 74 186 165 228 162 76 363 -30 393 -207 9 -51 28 -50
25 0 -4 84 -86 191 -178 232 -52 23 -144 31 -203 19z"/>
<path d="M2465 3122 c-46 -6 -93 -47 -101 -87 -9 -51 1 -65 18 -25 22 53 71
90 117 90 47 0 84 -27 112 -82 28 -54 47 -37 24 20 -25 62 -91 95 -170 84z"/>
<path d="M2480 2906 c0 -70 2 -76 20 -76 19 0 21 5 18 72 -2 60 -6 73 -20 76
-16 3 -18 -6 -18 -72z"/>
<path d="M1944 2796 c-3 -8 -4 -25 -2 -38 3 -23 4 -23 166 -26 l162 -2 0 24
c0 56 0 56 -166 56 -125 0 -156 -3 -160 -14z"/>
<path d="M2294 2796 c-3 -8 -4 -25 -2 -38 3 -22 7 -23 101 -26 l97 -3 0 41 0
40 -95 0 c-74 0 -97 -3 -101 -14z"/>
<path d="M2512 2773 l3 -38 98 -3 97 -3 0 41 0 40 -101 0 -100 0 3 -37z"/>
<path d="M2737 2783 c-10 -52 -7 -53 158 -53 150 0 153 0 159 23 16 59 20 57
-153 57 l-159 0 -5 -27z"/>
<path d="M1960 2686 c0 -7 5 -27 11 -45 l11 -31 150 0 151 0 -7 31 c-3 17 -6
38 -6 45 0 11 -30 14 -155 14 -124 0 -155 -3 -155 -14z"/>
<path d="M2303 2684 c-3 -9 -2 -28 3 -43 9 -25 13 -26 97 -29 l87 -3 0 46 0
45 -90 0 c-74 0 -92 -3 -97 -16z"/>
<path d="M2514 2686 c-3 -8 -4 -27 -2 -43 l3 -28 90 0 90 0 3 43 3 42 -91 0
c-69 0 -92 -3 -96 -14z"/>
<path d="M2731 2663 c-6 -20 -8 -40 -5 -45 3 -4 70 -8 149 -8 l143 0 11 31
c21 60 24 59 -139 59 l-149 0 -10 -37z"/>
<path d="M2514 2576 c-3 -8 -4 -27 -2 -43 3 -28 4 -28 76 -31 81 -3 102 6 102
45 0 28 -4 30 -98 37 -58 5 -74 3 -78 -8z"/>
<path d="M2714 2565 c-8 -11 -14 -30 -14 -42 0 -23 1 -23 129 -23 l129 0 21
34 c12 18 21 37 21 42 0 5 -61 9 -136 9 -124 0 -138 -2 -150 -20z"/>
<path d="M2021 2540 l23 -40 128 0 c138 0 139 0 118 54 l-10 26 -140 0 -141 0
22 -40z"/>
<path d="M2314 2563 c18 -68 11 -63 97 -63 l79 0 0 40 0 40 -91 0 c-81 0 -90
-2 -85 -17z"/>
<path d="M2350 2455 c0 -9 7 -29 16 -46 14 -28 18 -30 67 -27 l52 3 0 40 0 40
-67 3 c-57 2 -68 0 -68 -13z"/>
<path d="M2517 2463 c-4 -3 -7 -21 -7 -39 0 -38 21 -48 81 -42 27 3 38 11 51
38 10 19 15 36 13 38 -8 8 -131 12 -138 5z"/>
<path d="M2684 2445 c-31 -48 -18 -60 75 -63 l84 -3 39 38 c21 20 38 41 38 45
0 4 -49 8 -110 8 -105 0 -110 -1 -126 -25z"/>
<path d="M2086 2445 c4 -9 25 -27 49 -40 35 -21 55 -25 118 -25 83 0 87 3 67
54 -9 26 -10 26 -124 26 -99 0 -115 -2 -110 -15z"/>
<path d="M2255 2350 l-40 -6 58 -28 c32 -16 77 -31 99 -34 l42 -5 -23 32 c-13
18 -29 34 -35 36 -31 9 -65 11 -101 5z"/>
<path d="M2405 2340 c-8 -13 48 -70 70 -70 13 0 16 8 13 38 -3 35 -5 37 -40
40 -20 2 -39 -2 -43 -8z"/>
<path d="M2516 2334 c-13 -33 -7 -64 13 -64 16 0 81 61 81 75 0 3 -20 5 -44 5
-31 0 -46 -5 -50 -16z"/>
<path d="M2626 2328 c-20 -28 -20 -48 -1 -48 20 0 144 50 151 61 3 5 -26 9
-65 9 -61 0 -72 -3 -85 -22z"/>
<path d="M1106 2098 c-29 -16 -1 -28 69 -28 33 0 66 -4 72 -8 9 -6 13 -69 15
-237 2 -154 7 -230 14 -232 8 -3 13 68 18 229 4 128 8 233 9 235 2 1 40 5 85
9 70 6 82 10 82 25 0 17 -13 18 -172 18 -105 0 -180 -4 -192 -11z"/>
<path d="M1947 2013 c-5 -77 -3 -334 2 -410 2 -22 28 -14 35 10 3 12 6 46 6
75 0 28 4 52 8 52 5 0 49 -34 98 -75 77 -65 114 -87 114 -70 0 2 -38 41 -85
86 -47 45 -85 85 -85 90 0 4 24 36 53 69 102 120 102 120 82 120 -10 0 -53
-36 -95 -80 -42 -44 -80 -80 -83 -80 -4 0 -7 70 -7 155 0 145 -1 155 -19 155
-16 0 -19 -11 -24 -97z"/>
<path d="M2293 2103 c-10 -3 -13 -63 -13 -248 0 -242 5 -278 33 -242 11 14 17
14 57 -5 49 -23 124 -34 165 -24 32 8 101 70 121 107 30 58 11 163 -39 218
-32 34 -95 61 -147 61 -35 0 -57 -8 -98 -34 l-52 -35 0 105 c0 57 -3 104 -7
103 -5 0 -14 -3 -20 -6z m257 -195 c52 -27 80 -75 80 -136 0 -145 -169 -211
-271 -106 -29 30 -33 42 -37 97 -4 75 17 115 75 146 50 27 99 26 153 -1z"/>
<path d="M3880 2058 c0 -24 -3 -66 -6 -94 l-7 -52 -56 30 c-47 25 -65 29 -113
26 -156 -11 -230 -195 -131 -327 14 -18 42 -40 61 -48 49 -20 135 -13 195 16
47 23 49 23 62 5 13 -17 14 -4 15 106 0 69 3 182 7 253 5 114 4 127 -10 127
-13 0 -17 -10 -17 -42z m-64 -158 c85 -80 81 -195 -9 -251 -108 -66 -203 -29
-237 92 -15 53 3 109 50 153 41 37 43 38 105 34 51 -3 70 -9 91 -28z"/>
<path d="M1615 1951 c-156 -72 -151 -289 7 -356 49 -20 101 -19 168 4 50 18
55 18 66 3 7 -9 16 -13 20 -9 13 13 18 347 6 359 -7 7 -17 6 -32 -5 -19 -13
-26 -13 -71 4 -62 24 -113 24 -164 0z m170 -45 c66 -43 87 -143 45 -211 -34
-55 -73 -75 -146 -75 -59 0 -64 2 -94 36 -39 45 -50 73 -50 128 0 53 32 104
80 129 41 21 127 18 165 -7z"/>
<path d="M2820 1947 c-56 -28 -100 -89 -107 -150 -18 -158 147 -266 293 -192
27 14 50 25 50 25 1 0 4 -9 7 -20 3 -11 12 -20 21 -20 14 0 16 22 16 185 0
163 -2 185 -16 185 -9 0 -18 -9 -21 -21 -4 -14 -10 -18 -22 -13 -54 24 -120
43 -146 43 -16 0 -50 -10 -75 -22z m155 -37 c52 -25 85 -80 85 -143 0 -36 -7
-55 -33 -89 -63 -83 -161 -86 -239 -8 -35 35 -38 42 -38 95 0 131 109 201 225
145z"/>
<path d="M3252 1951 c-39 -25 -52 -26 -52 -6 0 8 -9 15 -20 15 -19 0 -20 -7
-20 -179 0 -169 6 -208 28 -186 4 4 9 67 12 142 l5 135 34 30 c31 28 39 30 88
26 90 -8 97 -21 104 -188 5 -137 14 -171 40 -155 9 6 10 40 6 137 -6 140 -20
184 -69 221 -39 29 -115 33 -156 8z"/>
</g>
</svg>
